<svg xmlns="http://www.w3.org/2000/svg" viewBox="0 0 200 200"><defs><style>.cls-1{fill:#e84439;}</style></defs><g id="chulip"><g id="レイヤー_95" data-name="レイヤー 95"><g id="レイヤー_96" data-name="レイヤー 96"><path class="cls-1" d="M171.09,60.14C162.56,45.36,150.4,36,135.87,38.26c-5.4-14-20.11-20-37.37-20-17.07,0-31.23,5.87-36.56,19.57-14.86-2.34-27.4,7.4-36,22.35-8.53,14.78-10.54,30-1.33,41.44-9.46,11.7-7.3,27.43,1.33,42.38,8.53,14.78,20.69,24.11,35.22,21.87,5.4,14,20.11,20,37.37,20,17.07,0,31.23-5.87,36.56-19.57,14.86,2.34,27.4-7.39,36-22.34,8.53-14.78,10.54-30,1.33-41.44C181.88,90.82,179.72,75.09,171.09,60.14ZM98.5,140.5A38.45,38.45,0,1,1,137,102.05,38.45,38.45,0,0,1,98.5,140.5Z"/><polygon class="cls-1" points="116.77 89.08 100.6 98.42 100.6 79.75 96.41 79.75 96.41 98.42 80.23 89.08 78.14 92.71 94.31 102.05 78.14 111.38 80.23 115.01 96.41 105.68 96.41 124.35 100.6 124.35 100.6 105.68 116.77 115.01 118.86 111.38 102.69 102.05 118.86 92.71 116.77 89.08"/></g></g></g></svg>