<svg xmlns="http://www.w3.org/2000/svg" viewBox="0 0 200 200"><defs><style>.cls-1{fill:#b83a21;}</style></defs><g id="higanbana"><g id="レイヤー_34" data-name="レイヤー 34"><g id="レイヤー_35" data-name="レイヤー 35"><path class="cls-1" d="M75.53,105.14c2-.12,3.93-.16,5.89-.35l5.86-.67c1-.12,2-.16,2.93-.35l2.91-.49c1.94-.32,3.89-.64,5.84-.94a92.15,92.15,0,0,1-20.81-4.85A76.45,76.45,0,0,1,59.31,87.27,71,71,0,0,1,44.43,71.84l-1.14-1.63a7.27,7.27,0,0,1-2-.43c-2.4-1-4.44-2.43-6.41-3.21a21.12,21.12,0,0,1-6.16-3.73c-.31-.14-1.12,1.2-1.47,1.2-2,0-3,2.82-3.46,3.51-.5.51-2.57-.08-2.85.39-.87,1.43.84,3.77,1.27,5.13.34,1.09-.84,3.22-.35,3.48s3.67.42,7,2.49c1.82,1.13,3,4,5.29,5.34,2,1.19,4.22,2.35,6.39,3.58s4.53,2,6.65,3.1,5,1.18,7.1,2.1,4.43,3,7.7,4.14c2.53.89,5.13,2.49,8,3.43,2.72.9,6,.24,8.68,1.09-2.49.69-5.19.61-7.7,1.31a15.34,15.34,0,0,0-4.06,2.14C69.78,105.32,72.66,105.26,75.53,105.14Z"/><path class="cls-1" d="M92.31,120.87a37.23,37.23,0,0,0,5.33-9,19.3,19.3,0,0,0,1.27-10.31,18.94,18.94,0,0,1-8.77-5.87,38,38,0,0,1-5.54-9.12,67.15,67.15,0,0,1-3.44-10.1C80.26,73,79.54,69.55,79,66.05a193.4,193.4,0,0,1-2-19.49c-.11-.17-.22-.34-.32-.52-1.12-2.1,0-5.47-1.09-7.52-1.22-2.27-4.88-3.07-5.89-4.94A14.25,14.25,0,0,1,68,26.41c-.35-.72-1.83-2.93-4-2.93-1.1,0-2,2.68-2.61,2.9-1.59.54-3.28,1.42-3.83,2.74a2.42,2.42,0,0,0,.29,2.2c.17.58-.86,3.82.35,7.54.67,2,4.09,3.5,5,6,.76,2.2-.94,5.43-.06,7.77s3.17,4,4.09,6.23,2.32,4.41,3.32,6.46c.92,1.87.84,5.2,2.51,8,1.3,2.21,3.41,4.23,4.93,6.68s4.42,5.32,5.88,7.61c-2.34-1.07-6.14-2.48-8.5-3.55l-.36-.19a94.45,94.45,0,0,0,9,8.3c1.18.92,2.35,1.87,3.54,2.77l3.72,2.54c.62.42,1.22.88,1.86,1.27L95.11,100Q97,101.13,99,102.34c-1.92.43-3.85.86-5.78,1.27l-2.89.62c-1,.23-2,.33-2.93.49l-5.86.85c-2,.25-3.94.35-5.91.52l-3,.24-3,0-3,0H65a6.62,6.62,0,0,1-1.15.47c-3,.85-6.15-.26-8.08.33-1.67.51-3.9,1.82-6.64,2.71-2.11.68-4,2.73-6.37,3.51s-5.14-.21-7.35.52c-2.44.81-4.22,3.22-6.23,3.89a13.93,13.93,0,0,1-7.35.36c-2.85.82-1.25,7-1.24,7a4.33,4.33,0,0,0,4,3.77c.17,0,.38,1.32.54,1.28a27.69,27.69,0,0,0,7.39.25c2.11-.3,4.11-3.68,6.74-4.1,2.29-.37,4.78-.25,7.23-.7s5.32,1.54,7.66,1,4.59-2.42,6.78-3c1.74-.5,3.38-3,6-4,2-.73,4.83.13,7.12-.77,2.09-.82,4.13-2,6.31-2.93s3.72-1,5.83-1.87c-1.24,1.79-2.93,2.24-4.18,4.06s-2.3,3.85-3.51,5.61c-1.32,1.93-1.07,4.8-2.21,6.48-1.45,2.15-4.53,2.83-5.48,4.3s-1.58,4-3.12,6.5c-.67,1.07-1.36,2.21-2.07,3.39,4-2.81,7.94-5.72,11.71-8.83A92.91,92.91,0,0,0,92.31,120.87Z"/><path class="cls-1" d="M60.06,86.28A78.83,78.83,0,0,0,78.49,96.6l5,1.85c1.68.56,3.4,1,5.11,1.48l2.55.75,2.61.54q2.61.54,5.22,1.12A92.68,92.68,0,0,1,83.47,93,73,73,0,0,1,70.4,80.46a8.19,8.19,0,0,0-1.51-.91c-2.82-1.26-5.38-2.21-7.23-3-1.6-.69-4-1.41-6.71-2.49-2.05-.83-4.09-2.31-6.4-3.23a12.63,12.63,0,0,0-4.08-.56c.25.34.48.68.73,1A73.06,73.06,0,0,0,60.06,86.28Z"/><path class="cls-1" d="M113.41,86.35l-4.09,3.39c-1.33,1.18-2.55,2.46-3.84,3.69l-1.92,1.84-1.78,2q-1.77,2-3.57,4a91.81,91.81,0,0,1,15.85-8.73,76.65,76.65,0,0,1,11.65-3.91c.5-.29,1-.59,1.39-.89,2.28-1.62,4.94-2.6,7-4.06,2.57-1.86,3.73-5,5.37-6.21,1.4-1,3.19-2.8,5.47-4.57,1.35-1,3.33-1.52,5.06-2.39a72.27,72.27,0,0,0-18.39,5.09A79.53,79.53,0,0,0,113.41,86.35Z"/><path class="cls-1" d="M104.85,84.79l-2.35,5.42c-.38.9-.84,1.78-1.16,2.71l-1,2.77q-1,2.76-2.09,5.53a91.83,91.83,0,0,1,14.6-15.61,76.39,76.39,0,0,1,18.27-11.2,71,71,0,0,1,20.76-5.17c1.8-1.28,4-2.15,5.64-3.48,2-1.6,2.56-4.86,4.22-6.18a13.28,13.28,0,0,1,6.91-2.72c.22-.16-1.16-2.27-1-2.51.46-.41,1.35.57,1.84.2,2.41-1.75-.9-5.65-.92-5.7-.87-1.57-2.22-4.38-4-4.38-.55,0-1.79-.4-2.21-.15s-1.84,3.65-5.29,5.49c-1.89,1-4.57,1.26-6.89,2.55-2,1.14-3.34,3.78-5.49,5s-4.75,1.54-6.77,2.83-4.47,2.3-6.32,3.64c-1.56,1.13-4.31,2.12-7,4.39-1.8,1.54-2.94,4.38-5.23,6.43-1.67,1.48-3.88,2.46-5.54,4s-2.89,3.19-4.42,4.6c.55-2.1,1.25-3.82,1.8-6a21.55,21.55,0,0,0,.22-4.89c-1.38,2.34-2.69,4.71-4,7.11C106.62,81.28,105.66,83,104.85,84.79Z"/><path class="cls-1" d="M104.83,121.72l-.9-5.24c-.35-1.73-.85-3.44-1.27-5.16l-.63-2.59-.83-2.53c-.56-1.68-1.11-3.38-1.65-5.08a92.82,92.82,0,0,1-.36,18.1c-.09.73-.19,1.45-.3,2.18.32,1.8,1.32,2.69,1.51,4.72.21,2.22-.57,4.54-.36,6.67.23,2.32.68,4.52.89,6.55.27,2.57.48,4.83.69,6.56.18,1.5,1.28,3.45,1.83,5.81a66.9,66.9,0,0,0,1.65-8.87A79.46,79.46,0,0,0,104.83,121.72Z"/><path class="cls-1" d="M118.92,97.61a37.33,37.33,0,0,0-10.45-.11,19.22,19.22,0,0,0-9.56,4.06,18.89,18.89,0,0,1-.7,10.52,37.89,37.89,0,0,1-5.13,9.36,66.38,66.38,0,0,1-7,8c-2.53,2.5-5.18,4.87-7.92,7.13-4.46,3.57-9.09,6.92-13.84,10.08l-.3.49c-1.26,2-1.78,4.56-3,6.54-1.35,2.19-4.33,3.23-5.44,5a12.84,12.84,0,0,0-1.7,7.37c-1.66,2.47,1.9,4.91,1.94,4.94a5.76,5.76,0,0,0,3.64,1.59c1.58,0,3.58.78,4,.24s.73-3.83,3.34-6.74c1.43-1.59,3.63-3,5.37-5,1.52-1.76,3.76-3.11,5.35-5s2.32-4.42,3.78-6.32,3.77-3.48,5-5.37c1-1.5.7-4.51,2.07-6.9,1.06-1.85,2.41-3.77,3.58-5.93,1.08-2,1.7-4.29,2.8-6.38.75-1.43,1.92-2,2.91-2.89.21-1.09.4-2.18.58-3.27.21-1.49.45-3,.63-4.46l.34-4.49c.05-.75.15-1.49.17-2.24l.05-2.26c0-1.5.07-3,.12-4.52,1.34,1.45,2.67,2.9,4,4.37l2,2.2c.68.71,1.26,1.52,1.89,2.28l3.67,4.66c.45.59.87,1.2,1.29,1.81,0-.15-.06-.29-.1-.43,1.54,1.52,4.34,2.64,5.92,4.2s1.53,4.82,3.06,6.32,5.1,1.3,6.56,2.72c1.86,1.8,2,5,3.25,6.16s3.91,2,6.05,4c1.64,1.49,4.21,2.27,6.07,3.93s2.55,4.36,4.29,5.91c1.92,1.71,3.7,3.39,5.29,4.8,3.12,2.77,5.14,4.84,5.19,4.89.33.32,1.09-1.09,2-1.09,1.62,0,4.46,1.47,5.18.9,1.31-1.05.94-4.17,1-5.6.05-1.14.94-2.6.57-3s-2.42-2.34-4.82-5.42c-1.32-1.68-2.83-3.67-4.52-5.73-1.46-1.8-3.93-3-5.55-4.86s-2.9-4-4.52-5.72-2.92-4.16-4.56-5.74c-1.3-1.25-2.81-3.25-4.93-5-1.63-1.36-4.05-2.14-6-3.67-1.76-1.4-4.67-1.47-6.53-2.92s-3.34-4.15-5.15-5.53c2.16.17,4.86,1.16,7.06,1.33s4.48,0,6.62.15c2.33.18,4.67-1.26,6.7-1.12,2.58.18,4.78,1.14,6.52,1.24a16.77,16.77,0,0,1,2.83.55c-3.54-1.59-7.1-3.1-10.73-4.45A93.3,93.3,0,0,0,118.92,97.61Z"/><path class="cls-1" d="M106.94,110.35c-.59-.79-1.13-1.62-1.77-2.37l-1.88-2.28q-1.87-2.27-3.74-4.58a92.75,92.75,0,0,1,6.22,20.45,76.47,76.47,0,0,1,.56,21.42,71.91,71.91,0,0,1-3.27,14,8.73,8.73,0,0,0-.3,3.19c.34,2.36.89,4.74,1.23,7,.37,2.55,1.3,4.89,1.61,7a17.11,17.11,0,0,0,2.64,6.89c.31,3,3.82,4.22,3.87,4.23a2.06,2.06,0,0,1,0-.89,6.16,6.16,0,0,0,.87-.22c1.46-.12,4.37.05,5.36-1.11.68-.79-1.49-2.47-1.5-3s1.65-3.33,1.78-7.24c.08-2.14,1.41-4.6,1.45-7.27,0-2.32-2.32-4.8-2.35-7.29s2.22-5,2.11-7.35-1.32-5-1.55-7.24c-.19-1.79-1.08-4.09-1.57-6.8-.37-2.09-2-4.16-2.48-6.57-.44-2.21.1-4.71-.39-7-.31-1.41-.64-3-1-4.59-.79-1.23-1.57-2.46-2.42-3.64Z"/><path class="cls-1" d="M184.79,99.66c-.69-.91-.59-2.1-1.14-2.18s-3.29-.67-7.12-1.48c-2.09-.44-4.48-1.13-7.1-1.63-2.28-.44-4.74-.72-7.2-1.13s-4.81-1-7.19-1.28-5-.43-7.27-.59c-1.58-.11-3.73,1.25-6.35,1.25-2.15,0-4.56-2.34-7-2.28-2.28,0-4.65.67-7,.75s-5.76,1-8,1.08c.53-.37,1.14-.74,1.79-1.11-2.27.69-4.51,1.47-6.72,2.31-1.39.56-2.79,1.1-4.17,1.69l-4.06,2c-.67.32-1.37.61-2,1l-2,1.09c-1.31.72-2.64,1.44-4,2.15q.87-2.84,1.78-5.64l.91-2.83c.28-.94.7-1.84,1-2.77l2.19-5.51c.77-1.82,1.68-3.58,2.51-5.38l1.27-2.68,1.46-2.58,1.48-2.59c.49-.86,1-1.73,1.53-2.54l3.28-5,.12-.15c.36-2.07.36-4,.69-5.42.4-1.7.17-4.33.77-7.15.47-2.17,1.57-4.42,2.08-6.86s1.14-4.68,1.61-7c.53-2.52-1.37-5.41-1-7.48a11.67,11.67,0,0,1,4-6.42c.72-2.88-4.53-6.32-4.58-6.33-.52-.21-1.61.19-2.3.19-1.41,0-5.55.74-6.18,2.68-.24.57,1,4-.46,7.58-.8,2-3.55,3.56-4.5,6-.83,2.17-1.6,4.54-2.43,6.89s-2,4.51-2.77,6.79.42,5.34-.13,7.55c-.44,1.75-.38,4.14-.85,6.85-.36,2.1-1.57,4.26-1.94,6.7-.33,2.22-2.2,4.33-2.52,6.67s.45,4.12.16,6.39c-.9-1.9-2.33-2.92-3.31-5s-2.47-3.73-3.41-5.69-.6-4.77-1.5-6.61c-1.12-2.32-1.5-4.69-2.29-6.25s-2.69-3.4-4-5.95a25.65,25.65,0,0,0-2.87-3.75C78.57,54,79.18,60,80.17,65.85a93.42,93.42,0,0,0,5.31,20.34,37.14,37.14,0,0,0,5.13,9.11,19.16,19.16,0,0,0,8.3,6.26,18.8,18.8,0,0,1,9.46-4.66A37.77,37.77,0,0,1,119,96.67a64.22,64.22,0,0,1,10.47,2.07c3.43.93,6.8,2.05,10.13,3.29q7.32,2.85,14.37,6.3l.18,0c2.21.08,4.62,1.05,7.11,1.12s4.89-2.47,7.22-2.4c2.57.07,4.93,3.06,7,3.12a22.28,22.28,0,0,0,7.17-1c.08,0,.09.56.18.56,2.84,0,4.45-5.72,4.46-5.77C187.71,102.39,185.66,100.79,184.79,99.66Z"/><path class="cls-1" d="M113.7,120a109.69,109.69,0,0,1,10.72,20.9A90,90,0,0,1,130,163.68a85.35,85.35,0,0,1,.36,11.75,99,99,0,0,1-1.09,11.76,87.32,87.32,0,0,0,1.7-11.72,85.64,85.64,0,0,0,0-11.88,86.37,86.37,0,0,0-5.34-23.12L123.28,135l-2.66-5.33c-.41-.9-.93-1.74-1.43-2.6l-1.5-2.56-1.51-2.56-1.68-2.44c-.72-1-1.41-2-2.12-3,.16.72.32,1.49.49,2.29C113.14,119.16,113.42,119.59,113.7,120Z"/><path class="cls-1" d="M103.66,152.83a9.66,9.66,0,0,0-.21-1.12,76.62,76.62,0,0,1-3.91,11.49A99.92,99.92,0,0,1,89,181.64a103.12,103.12,0,0,0,6.3-8.64c.92-1.53,1.9-3,2.71-4.62L99.27,166l1.14-2.43c1-2.16,1.87-4.37,2.65-6.62A12,12,0,0,0,103.66,152.83Z"/><path class="cls-1" d="M97.66,122.36a78.27,78.27,0,0,1-4,14A65,65,0,0,1,85.08,152,76.64,76.64,0,0,1,72.6,165a68.42,68.42,0,0,0,7.05-5.68l1.64-1.56,1.56-1.66c1.07-1.08,2-2.29,3-3.44s1.82-2.43,2.7-3.66,1.63-2.57,2.39-3.88,1.45-2.68,2.11-4l1.84-4.18a71.86,71.86,0,0,0,4-15.45c0-.16-.06-.31-.08-.49A5.15,5.15,0,0,1,97.66,122.36Z"/><path class="cls-1" d="M60.31,148.15c-2.92,2-5.88,3.9-8.86,5.79s-6,3.78-9,5.67c3.13-1.65,6.21-3.4,9.28-5.15s6.08-3.63,9.07-5.51c1.16-.74,2.31-1.5,3.46-2.27.46-.74.91-1.48,1.35-2.21C63.87,145.71,62.1,146.94,60.31,148.15Z"/><path class="cls-1" d="M111.65,70.59a8.32,8.32,0,0,0-.21,1.82,94.88,94.88,0,0,1,8.79-12.62A89.92,89.92,0,0,1,137.17,43.6a85.72,85.72,0,0,1,10-6.19,97.24,97.24,0,0,1,10.73-4.93,81.89,81.89,0,0,0-21.28,10.34A87.09,87.09,0,0,0,119.27,59l-3.49,4.58c-.07.39-.15.77-.25,1.17C115,66.73,112.23,68.32,111.65,70.59Z"/><path class="cls-1" d="M150,70.46l2-.28a99.86,99.86,0,0,1,21.24-.07A101.84,101.84,0,0,0,162.59,69c-1.78,0-3.57-.13-5.36,0l-2.68.08-2.67.22h0l-.45.33A8.45,8.45,0,0,1,150,70.46Z"/><path class="cls-1" d="M131.68,88.63a65.08,65.08,0,0,1,17.85-.33A76.71,76.71,0,0,1,167,92.64a70.06,70.06,0,0,0-8.44-3.26l-2.18-.64-2.21-.52c-1.47-.39-3-.58-4.47-.86s-3-.36-4.53-.51-3-.13-4.55-.13-3,.08-4.56.19l-4.53.5c-1.94.3-3.87.7-5.78,1.17-1.44.84-3.1,1.65-4.57,2.48A73.18,73.18,0,0,1,131.68,88.63Z"/><path class="cls-1" d="M158.55,111.69c3.18,1.54,6.32,3.14,9.45,4.78s6.26,3.29,9.39,4.93c-3-1.89-6-3.68-9.1-5.46s-6.17-3.45-9.31-5.1c-1.64-.86-3.3-1.69-5-2.51a21,21,0,0,1-4.08-.69Q154.26,109.61,158.55,111.69Z"/><path class="cls-1" d="M52.07,104A90.05,90.05,0,0,1,29.58,97.4a85.9,85.9,0,0,1-10.36-5.56A100.63,100.63,0,0,1,9.58,85a86.72,86.72,0,0,0,9.31,7.33,83.89,83.89,0,0,0,10.29,5.92,87.09,87.09,0,0,0,22.7,6.94l5.9.76,5.94.36c.43,0,.86.05,1.3.05a16.67,16.67,0,0,0,1.88-1.1A93.28,93.28,0,0,1,52.07,104Z"/><path class="cls-1" d="M34.51,52.92a103.89,103.89,0,0,0,4.34,9.78c.87,1.56,1.67,3.15,2.64,4.66l1.41,2.28.39.57c.39,0,.78.06,1.18.07A102.08,102.08,0,0,1,34.51,52.92Z"/><path class="cls-1" d="M71.33,79.64a64.91,64.91,0,0,1-9.22-15.3,76.37,76.37,0,0,1-5-17.26,69.92,69.92,0,0,0,1.39,9l.54,2.2.65,2.18c.4,1.46,1,2.86,1.49,4.3s1.2,2.79,1.82,4.17,1.41,2.69,2.17,4,1.59,2.59,2.44,3.85l2.7,3.67,0,0a39,39,0,0,0,4.65,3.46C73.75,82.54,72.5,81.12,71.33,79.64Z"/><path class="cls-1" d="M77.85,44.84c-.25-3.52-.43-7.05-.58-10.58S77,27.2,76.85,23.67c-.14,3.53-.17,7.07-.18,10.61s.1,7.07.24,10.61c0,.56.06,1.11.09,1.67a15.21,15.21,0,0,0,1.1,1.53C78,47,77.93,45.92,77.85,44.84Z"/></g></g></g></svg>