<svg xmlns="http://www.w3.org/2000/svg" viewBox="0 0 200 200"><defs><style>.cls-1{fill:#d33a49;}</style></defs><g id="deigo"><g id="レイヤー_127" data-name="レイヤー 127"><g id="レイヤー_128" data-name="レイヤー 128"><path class="cls-1" d="M149.72,103.2l-3-1,3.12-1c15.27-5,28.46-24.89,28.46-24.89s-22.39-8.38-37.66-3.42l-3,1,1.92-2.66c9.44-13,8.39-36.87,8.39-36.87s-23,6.38-32.47,19.37c-.65.89-1.27,1.75-1.88,2.57,0-1,0-2.14,0-3.28,0-16-14.88-34.76-14.88-34.76S83.77,36.93,83.77,53c0,1.1,0,2.16,0,3.19-.63-.85-1.27-1.73-1.94-2.65-9.44-13-32.47-19.37-32.47-19.37S48.3,58,57.74,71c.65.89,1.27,1.75,1.87,2.59l-3.13-1C41.21,67.63,18.83,76,18.83,76S32,95.94,47.28,100.9l3,1-3.12,1c-15.27,5-28.46,24.9-28.46,24.9s22.39,8.37,37.66,3.41l3-1-1.92,2.66c-9.44,13-8.39,36.86-8.39,36.86s23-6.38,32.47-19.37l1.88-2.57c0,1.06,0,2.15,0,3.28,0,16.06,14.88,34.76,14.88,34.76s14.88-18.7,14.88-34.76c0-1.1,0-2.16,0-3.18.63.85,1.27,1.73,1.94,2.65,9.44,13,32.47,19.37,32.47,19.37s1-23.88-8.39-36.87l-1.87-2.58,3.13,1c15.27,5,37.65-3.41,37.65-3.41S165,108.16,149.72,103.2Z"/><path class="cls-1" d="M116.66,84.86a18,18,0,0,0,3.94,1.24,18.12,18.12,0,0,0,0,4.26c-2.54-.08-7.3,3.31-10.51,4.35-.94.31-1.71.59-2.36.85.47-.55,1-1.22,1.6-2C111.26,90.78,116,87.3,116.66,84.86Z"/><path class="cls-1" d="M102.2,88.8c0-3.37,1.76-9,.89-11.33A18.35,18.35,0,0,0,107,76.16a17.89,17.89,0,0,0,2.46,3.47c-2.1,1.43-4,7-5.94,9.7-.58.8-1,1.48-1.41,2.08C102.17,90.69,102.2,89.84,102.2,88.8Z"/><path class="cls-1" d="M90.17,76.1a17.74,17.74,0,0,0,4,1.37c-.86,2.38.89,8,.89,11.33,0,1,0,1.81.08,2.51-.38-.61-.85-1.32-1.46-2.15-2-2.73-3.84-8.28-5.94-9.7A18.24,18.24,0,0,0,90.17,76.1Z"/><path class="cls-1" d="M80.57,84.69c.71,2.43,5.41,5.92,7.39,8.64.58.8,1.08,1.45,1.54,2-.67-.28-1.47-.57-2.45-.89-3.21-1-8-4.43-10.51-4.35a18.2,18.2,0,0,0,0-4.13A17.59,17.59,0,0,0,80.57,84.69Z"/><path class="cls-1" d="M71.25,102a17.58,17.58,0,0,0,2.54-3.41c2,1.56,7.85,1.61,11.06,2.65.94.31,1.73.54,2.41.71-.7.16-1.52.4-2.5.72-3.21,1-9.05,1.1-11.06,2.65A18.33,18.33,0,0,0,71.25,102Z"/><path class="cls-1" d="M80.34,119.23A18.58,18.58,0,0,0,76.4,118a18.11,18.11,0,0,0,0-4.26c2.54.08,7.3-3.31,10.51-4.35.94-.3,1.71-.58,2.36-.85-.47.55-1,1.22-1.6,2C85.74,113.31,81,116.8,80.34,119.23Z"/><path class="cls-1" d="M94.8,115.29c0,3.38-1.76,8.95-.89,11.34A17.81,17.81,0,0,0,90,127.94a18.24,18.24,0,0,0-2.46-3.48c2.1-1.42,4-7,5.94-9.7.58-.79,1-1.48,1.41-2.07C94.83,113.41,94.8,114.26,94.8,115.29Z"/><path class="cls-1" d="M92.23,102.05a6.27,6.27,0,1,1,6.27,6.27A6.27,6.27,0,0,1,92.23,102.05Z"/><path class="cls-1" d="M106.83,128a18.25,18.25,0,0,0-4-1.36c.86-2.39-.89-8-.89-11.34,0-1,0-1.81-.08-2.51.38.62.85,1.32,1.46,2.16,2,2.73,3.84,8.27,5.94,9.69A18.58,18.58,0,0,0,106.83,128Z"/><path class="cls-1" d="M116.43,119.41c-.71-2.44-5.41-5.92-7.39-8.65-.58-.8-1.08-1.45-1.54-2,.67.28,1.47.57,2.45.89,3.21,1,8,4.43,10.51,4.35a18.2,18.2,0,0,0,0,4.13A18.15,18.15,0,0,0,116.43,119.41Z"/><path class="cls-1" d="M123.21,105.56c-2-1.56-7.85-1.62-11.06-2.66-.94-.31-1.73-.53-2.41-.7.7-.17,1.52-.4,2.5-.72,3.21-1,9.05-1.1,11.06-2.66a18,18,0,0,0,2.45,3.32A17.67,17.67,0,0,0,123.21,105.56Z"/></g></g></g></svg>