<svg xmlns="http://www.w3.org/2000/svg" viewBox="0 0 200 200"><defs><style>.cls-1{fill:#e4e3e2;}</style></defs><g id="yuri"><g id="レイヤー_125" data-name="レイヤー 125"><g id="レイヤー_126" data-name="レイヤー 126"><path class="cls-1" d="M159.18,87c5.7-8.69,8-10.88,8.63-16.8.17-1.63,3.66-5.18,4.06-7.22A2.9,2.9,0,0,0,170,59.81c-2-.68-7.33-.36-8.83-1-5.43-2.44-8.09-3-19.4-1.86-3.68.37-13.64.66-16.39,2.78a79.4,79.4,0,0,0-10.16,9.38,95.17,95.17,0,0,0,2-11.62c.37-3.44-3.36-12.28-4.72-15.58-3.81-9.28-4.41-12.39-8.35-15.88-1.08-1-2.16-5.75-3.44-7.12a2.05,2.05,0,0,0-3,0C96.49,20.25,94.53,25,93.44,26c-3.93,3.49-5.41,5.52-9.22,15.88C83,45.25,79.12,54,79.5,57.46a93.32,93.32,0,0,0,2,11.62A78.74,78.74,0,0,0,71.35,59.7C68.6,57.58,58.66,57.13,55,56.92c-10.38-.6-13.44-1.52-18.87.92-1.49.67-6.31-.58-8.28.1A2.92,2.92,0,0,0,26,61.12c.41,2,3.36,6.52,3.52,8.15C30.11,75.19,31,77.78,37.6,87c2.16,3,7.39,11.48,10.6,12.8a79.17,79.17,0,0,0,13.2,4.11A94.73,94.73,0,0,0,50.33,108c-3.17,1.4-8.95,9-11.13,11.88-6.14,7.94-8.53,10-9.58,15.16-.29,1.42-3.9,4.75-4.45,6.55a2,2,0,0,0,1.5,2.59c1.83.43,7-.27,8.33.19,5,1.67,7.49,1.93,18.37.05,3.54-.61,13.06-1.66,15.85-3.7a95.39,95.39,0,0,0,9.06-7.56,78.34,78.34,0,0,0-3,13.49c-.46,3.44,4.12,12.28,5.79,15.58,4.67,9.28,5.4,12.4,10.23,15.88,1.32,1,2.65,5.75,4.22,7.13a2.91,2.91,0,0,0,3.67,0c1.57-1.38,4-6.17,5.31-7.13,4.82-3.48,6.64-5.51,11.31-15.88,1.52-3.37,6.24-12.14,5.78-15.58a79.29,79.29,0,0,0-3-13.49,94.15,94.15,0,0,0,9.06,7.56c2.79,2,12.31,3.23,15.85,3.7,9.94,1.34,12.93,2.38,17.92.71,1.37-.45,6.07,1,7.89.58a2,2,0,0,0,1.5-2.59c-.55-1.8-3.72-5.89-4-7.31-1.05-5.15-2.07-7.45-9.14-15.93-2.3-2.76-8-10.48-11.13-11.88a94.86,94.86,0,0,0-11.08-4.06,79,79,0,0,0,13.21-4.11C151.79,98.49,157.15,90.1,159.18,87Zm-63.5-3c5.87-1.68,13.41-1.68,19.28-.84a10.34,10.34,0,0,1-8.39,4.19c-5,0-10.89,2.51-15.92,0A17.28,17.28,0,0,1,95.68,84Zm-5-5c1.68,7.54-4.19,15.92-8.38,22.63C79.75,93.21,85.62,84.82,90.65,79ZM73.88,97.4c8.39,2.51,11.74,11.73,15.93,18.44C81.43,114.16,77.24,104.1,73.88,97.4Zm30.18,21.79c-6.71,2.52-14.25,2.52-21,2.52-.83,0-1.67-.84-.83-1.68,1.67-.84,2.51-1.68,4.19-2.52,6.7-.83,12.57-2.51,19.28-.83C105.74,118.35,104.9,118.35,104.06,119.19Zm6.71-.84c-.84.84-.84,2.52-.84,3.36-.84,1.67-2.52,4.19-3.36,3.35-2.51,0-.83-3.35-.83-5,2.51-5.87,5-11.74,9.22-16.77C117.47,108.29,114.12,114.16,110.77,118.35Zm-3.36-30.17c8.39,2.51,11.74,11.73,15.93,18.44C115,104.94,110.77,94.88,107.41,88.18Z"/></g></g></g></svg>