<svg xmlns="http://www.w3.org/2000/svg" viewBox="0 0 200 200"><defs><style>.cls-1{fill:#da6086;}</style></defs><g id="tsutsuji"><g id="レイヤー_145" data-name="レイヤー 145"><path class="cls-1" d="M182.53,78.07c-2.27-2.41-9.27-8.71-11.21-11.38-5.43-7.48-27-6.46-41.91-.43,1.23-16.12-4.47-37.25-13.34-40.12-3-1-10.79-5.63-13.53-7A8,8,0,0,0,95.45,19c-3,1.41-11.14,6.13-14.29,7.15C72.37,29,66.69,49.8,67.8,65.87c-14.94-6.16-36.8-7.27-42.28.28-1.88,2.6-8.68,8.52-10.86,10.7a8,8,0,0,0-2.3,6.7c.41,3.29,2.38,12.49,2.38,15.8,0,9.24,18,21.08,33.65,25-10.47,12.31-18.28,32.76-12.79,40.3,1.89,2.6,5.42,10.89,6.82,13.64a8,8,0,0,0,5.66,4.26c3.25.62,12.61,1.6,15.76,2.62C72.63,188,89.46,174.51,98,160.86c8.47,13.77,25.51,27.51,34.37,24.62,3-1,12-1.79,15.08-2.27a8,8,0,0,0,5.8-4.07c1.59-2.9,5.42-11.5,7.36-14.18,5.44-7.47-2.2-27.65-12.54-40,15.71-3.81,34-15.76,34-25.08,0-3.21,2-12,2.49-15A8,8,0,0,0,182.53,78.07Zm-73.46,2.86-2.35,4.35L104.42,81Zm-5.49,0-2.35,4.35L98.93,81ZM98.18,91l-2.35,4.35L93.53,91Zm-2-5.17,4.65,0-2.35,4.36ZM100.88,96l-2.35,4.36L96.23,96Zm-1.95-5,4.65,0-2.35,4.35Zm-.75-10.09-2.35,4.35L93.53,81ZM87.45,90.28,85.14,86l4.65,0ZM88,81l4.65,0-2.34,4.35Zm7,5-2.35,4.36L90.36,86Zm3.32,28.43a5.9,5.9,0,1,1,5.9-5.89A5.89,5.89,0,0,1,98.33,114.35Zm6.07-24.07L102.1,86l4.65,0Zm5.21,0L107.31,86l4.65,0Z"/></g></g></svg>