<svg xmlns="http://www.w3.org/2000/svg" viewBox="0 0 200 200"><defs><style>.cls-1{fill:#363072;}</style></defs><g id="sumire"><g id="レイヤー_160" data-name="レイヤー 160"><path class="cls-1" d="M153.53,77.57l-1.1-.32q.52-.91,1-1.83c10.24-20.44-.65-52.84-10.15-56.6-7.48-3-30.37,5.39-44.77,19-14.4-13.66-37.29-22-44.77-19C44.23,22.58,33.34,55,43.58,75.42q.47.92,1,1.83l-1.1.32c-20.55,6.68-37.54,34.56-34.79,43s32.89,21,53.44,14.38l.22-.08a29.76,29.76,0,0,0-.37,4.58c0,21.6,25.73,46.38,36.53,46.38S135,161.09,135,139.49a29.76,29.76,0,0,0-.37-4.58l.22.08c20.55,6.67,50.68-5.89,53.44-14.38S174.08,84.25,153.53,77.57ZM99.16,90.12c-6.51,0-11.79,13.06-11.79,6.55a11.8,11.8,0,1,1,23.59,0C111,103.18,105.68,90.12,99.16,90.12Z"/></g></g></svg>