<svg xmlns="http://www.w3.org/2000/svg" viewBox="0 0 200 200"><defs><style>.cls-1{fill:#ae70a6;}</style></defs><g id="sarusuberi"><path class="cls-1" d="M172.73,136.83c.63-2.34,3.41-4.41,3.4-6.78s-2.79-4.48-3.41-6.79.77-5.49-.44-7.58-4.62-2.46-6.34-4.17-2.05-5.11-4.18-6.34-5.31.16-7.57-.45c-1.72-.46-3.29-2.07-4.93-2.9,1.57-.85,3.08-2.35,4.72-2.79,2.27-.61,5.45.78,7.58-.45s2.52-4.68,4.18-6.34,5.16-2.12,6.34-4.17-.18-5.27.44-7.59,3.41-4.37,3.41-6.78-2.77-4.44-3.4-6.79.78-5.45-.45-7.58-4.68-2.51-6.34-4.17-2.12-5.16-4.17-6.35-5.27.19-7.59-.43S149.61,45,147.2,45s-4.44,2.78-6.79,3.41-5.45-.78-7.58.45-2.51,4.68-4.17,6.34c-1.26,1.25-3.44,1.81-5,2.82,0-1.79-.49-3.85-.05-5.49.6-2.27,3.4-4.33,3.4-6.79s-2.8-4.52-3.4-6.79.74-5.52-.45-7.58-4.65-2.48-6.34-4.17-2.09-5.14-4.17-6.35-5.24.19-7.58-.44S100.76,17,98.3,17s-4.52,2.79-6.79,3.4-5.52-.75-7.58.44-2.48,4.66-4.17,6.35-5.14,2.08-6.34,4.17.18,5.23-.45,7.58-3.4,4.33-3.4,6.79,2.8,4.52,3.4,6.79c.46,1.71-.15,3.87,0,5.71-1.53-.93-3.58-1.49-4.79-2.7-1.66-1.65-2-5.11-4.17-6.34s-5.32.17-7.58-.44S52,45.31,49.6,45.31s-4.47,2.79-6.78,3.41-5.5-.76-7.59.44-2.45,4.62-4.17,6.34-5.11,2-6.34,4.18.16,5.31-.45,7.58-3.41,4.41-3.4,6.79,2.79,4.47,3.41,6.78-.77,5.5.44,7.58,4.62,2.46,6.34,4.18,2.05,5.11,4.18,6.34,5.31-.16,7.57.45c1.72.46,3.29,2.06,4.93,2.89-1.57.86-3.08,2.35-4.72,2.8-2.27.61-5.45-.79-7.58.44s-2.52,4.68-4.18,6.34S26.1,114,24.92,116s.18,5.27-.44,7.58-3.41,4.38-3.41,6.78,2.77,4.44,3.4,6.79-.78,5.45.45,7.58,4.68,2.52,6.34,4.18,2.12,5.16,4.17,6.34,5.27-.18,7.59.44,4.37,3.41,6.78,3.41,4.44-2.78,6.79-3.41,5.45.79,7.58-.44,2.51-4.68,4.17-6.34c1.26-1.26,3.44-1.81,5-2.82,0,1.79.49,3.84.05,5.49-.6,2.27-3.4,4.33-3.4,6.79s2.8,4.52,3.4,6.78-.74,5.53.45,7.58,4.65,2.48,6.34,4.17,2.09,5.14,4.17,6.35,5.24-.18,7.58.44,4.33,3.41,6.79,3.41,4.52-2.8,6.79-3.41,5.52.75,7.58-.44,2.48-4.65,4.17-6.35,5.14-2.08,6.34-4.17-.18-5.23.45-7.58,3.4-4.32,3.4-6.78-2.8-4.52-3.4-6.79c-.46-1.72.15-3.88,0-5.72,1.53.94,3.58,1.49,4.79,2.7,1.66,1.66,2,5.11,4.17,6.34s5.32-.16,7.58.45,4.42,3.4,6.79,3.4,4.47-2.79,6.78-3.41,5.5.77,7.59-.44,2.45-4.62,4.17-6.34,5.11-2.05,6.34-4.18S172.12,139.1,172.73,136.83ZM133,105.16c-2.05,1.19-2.45,4.63-4.17,6.35s-5.11,2-6.34,4.17.16,5.31-.45,7.58-3.41,4.41-3.4,6.79,2.79,4.47,3.41,6.78c.45,1.7-.17,3.86-.06,5.71-1.54-.94-3.59-1.49-4.78-2.68-1.69-1.69-2.09-5.14-4.17-6.35s-5.23.19-7.58-.44-4.33-3.4-6.79-3.4-4.52,2.79-6.79,3.4-5.52-.75-7.58.44-2.47,4.66-4.17,6.35c-1.24,1.24-3.42,1.78-5,2.8,0-1.8-.5-3.85-.07-5.48.62-2.31,3.41-4.38,3.42-6.78s-2.78-4.44-3.41-6.79.78-5.45-.45-7.58-4.68-2.52-6.34-4.18-2.11-5.15-4.17-6.34-5.27.18-7.58-.44c-1.7-.45-3.26-2.07-4.92-2.9,1.59-.86,3.09-2.37,4.72-2.8,2.31-.62,5.49.76,7.58-.44s2.45-4.62,4.17-6.34,5.11-2,6.34-4.18-.16-5.31.45-7.58,3.41-4.41,3.4-6.78-2.79-4.48-3.41-6.79c-.45-1.69.17-3.85.06-5.71,1.54,1,3.59,1.49,4.78,2.68,1.69,1.7,2.09,5.15,4.17,6.35s5.23-.18,7.58.45,4.33,3.4,6.79,3.4,4.52-2.8,6.79-3.4,5.52.74,7.58-.45,2.47-4.65,4.17-6.34c1.24-1.24,3.42-1.79,5-2.81,0,1.8.5,3.86.07,5.48-.62,2.31-3.41,4.38-3.42,6.79s2.78,4.44,3.41,6.78-.78,5.45.45,7.58,4.68,2.52,6.34,4.18,2.11,5.16,4.17,6.34,5.27-.18,7.58.44c1.7.45,3.26,2.07,4.92,2.91-1.59.85-3.09,2.36-4.72,2.8C138.3,105.34,135.12,104,133,105.16Z"/></g></svg>