<svg xmlns="http://www.w3.org/2000/svg" viewBox="0 0 200 200"><defs><style>.cls-1{fill:#e1f7f7;}</style></defs><g id="ume"><g id="レイヤー_196" data-name="レイヤー 196"><g id="レイヤー_197" data-name="レイヤー 197"><path class="cls-1" d="M91.31,80,95.91,90h5.39l4.57-9.87A31.35,31.35,0,1,0,91.31,80Z"/><path class="cls-1" d="M69.93,106.08l11-1.32,1.66-5.13-7.88-7.31a31.41,31.41,0,1,0-4.78,13.76Z"/><path class="cls-1" d="M120.11,125.39l-8.92-5-4.35,3.17,1.92,9.76a31.44,31.44,0,1,0,11.35-8Z"/><path class="cls-1" d="M183.42,80.19a31.47,31.47,0,0,0-61.28,12.47l-7.52,7,1.66,5.13L126.42,106a31.47,31.47,0,0,0,57-25.78Z"/><path class="cls-1" d="M90.37,123.58,86,120.41l-9.09,5.07a31.28,31.28,0,1,0,11.35,8.73Z"/><circle class="cls-1" cx="99" cy="107.27" r="10.23" transform="translate(-44.3 135.09) rotate(-58.28)"/></g></g></g></svg>