<svg id="sazanka" xmlns="http://www.w3.org/2000/svg" viewBox="0 0 200 200"><defs><style>.cls-1{fill:#d47c7d;}</style></defs><g id="レイヤー_143" data-name="レイヤー 143"><path class="cls-1" d="M44.46,132A123.24,123.24,0,0,0,53,121.83a83.71,83.71,0,0,1,6.57-8,83.28,83.28,0,0,1-10-2.59,124.71,124.71,0,0,0-12.88-3.2c-6-1.25-11.5-2.42-15.77-4.85a12.37,12.37,0,0,0-4.69,8.39c-.49,3.09,1.91,6.89,3.83,9.94a22.47,22.47,0,0,1,2.38,4.38,22.44,22.44,0,0,1,.65,4.93c.23,3.6.53,8.08,2.74,10.3a12.35,12.35,0,0,0,8.73,4C36.57,140.71,40.37,136.51,44.46,132Z"/><path class="cls-1" d="M65.79,174.8a15,15,0,0,1-2.34-.2c-2.47-.4-5.24-3.72-7.25-6.15a23.42,23.42,0,0,0-3.73-3.89,23.63,23.63,0,0,0-4.85-2.34c-2.93-1.17-6.94-2.77-8.09-5-4-7.84,1-13.42,8.66-21.85a128.9,128.9,0,0,0,8.87-10.58,75.48,75.48,0,0,1,8.31-9.66l4.83-4.73-6.69-1a76.05,76.05,0,0,1-12.4-2.93,125.2,125.2,0,0,0-13.39-3.34c-11.14-2.34-18.5-3.89-19.85-12.6-.38-2.47,1.92-6.13,3.6-8.79A23.43,23.43,0,0,0,24,77a23.33,23.33,0,0,0,.73-5.34c.21-3.15.49-7.46,2.26-9.23a10.49,10.49,0,0,1,7.88-3.53c4.41,0,9.58,2.31,15.56,5a126.3,126.3,0,0,0,12.82,5.17A76.69,76.69,0,0,1,75,74l6,3.14-1.13-6.67a75.76,75.76,0,0,1-1-12.7,126.29,126.29,0,0,0-1-13.76c-1.21-11.33-2-18.8,5.85-22.78a5.79,5.79,0,0,1,2.6-.49,30.31,30.31,0,0,1,6.88,1.2,23.36,23.36,0,0,0,5.3,1,23.45,23.45,0,0,0,5.3-1,30.31,30.31,0,0,1,6.88-1.2,5.79,5.79,0,0,1,2.6.49c7.87,4,7.06,11.45,5.85,22.77a126.48,126.48,0,0,0-1,13.77,75.84,75.84,0,0,1-1,12.7L116,77.14,122,74a76.28,76.28,0,0,1,11.75-4.92,125.6,125.6,0,0,0,12.81-5.17c6-2.68,11.16-5,15.57-5A10.49,10.49,0,0,1,170,62.44c1.77,1.77,2,6.08,2.26,9.22A23.34,23.34,0,0,0,173,77a22.92,22.92,0,0,0,2.55,4.75c1.68,2.66,4,6.32,3.6,8.79-1.35,8.71-8.71,10.26-19.85,12.6a125.2,125.2,0,0,0-13.39,3.34,76.05,76.05,0,0,1-12.4,2.93l-6.69,1,4.83,4.73a76.28,76.28,0,0,1,8.31,9.66,128.9,128.9,0,0,0,8.87,10.58c8.33,9.2,12.5,14.36,8.66,21.85-1.15,2.23-5.16,3.83-8.09,5a23.63,23.63,0,0,0-4.85,2.34,23.41,23.41,0,0,0-3.73,3.89c-2,2.43-4.78,5.75-7.25,6.15a15,15,0,0,1-2.34.2c-7.05,0-10.71-6.37-15.77-15.19a127.52,127.52,0,0,0-7.32-11.7A76.48,76.48,0,0,1,101.5,137l-3-6.06-3,6.06a76.48,76.48,0,0,1-6.62,10.89,128.88,128.88,0,0,0-7.32,11.7C76.5,168.43,72.85,174.8,65.79,174.8Zm32.71-97a23.4,23.4,0,1,0,23.39,23.4A23.43,23.43,0,0,0,98.5,77.81Z"/><path class="cls-1" d="M124.13,44.54a121.52,121.52,0,0,0-.93,13.23,83.72,83.72,0,0,1-.63,10.31,85.05,85.05,0,0,1,9.61-3.79,119.46,119.46,0,0,0,12.3-5c5.55-2.49,10.73-4.8,15.6-5.34A12.33,12.33,0,0,0,159,44.43c-1.43-2.79-5.6-4.45-9-5.79a23.12,23.12,0,0,1-4.49-2.14,22.51,22.51,0,0,1-3.42-3.61c-2.31-2.78-5.18-6.23-8.27-6.73a17.09,17.09,0,0,0-2.59-.22,11.73,11.73,0,0,0-6.84,2.11C125.38,32.86,124.78,38.49,124.13,44.54Z"/><path class="cls-1" d="M52.52,59.32a119.46,119.46,0,0,0,12.3,5,85.05,85.05,0,0,1,9.61,3.79,83.72,83.72,0,0,1-.63-10.31,121.52,121.52,0,0,0-.93-13.23c-.65-6-1.25-11.68-.26-16.49a11.73,11.73,0,0,0-6.84-2.11,17.09,17.09,0,0,0-2.59.22c-3.09.5-6,3.95-8.27,6.73a22.51,22.51,0,0,1-3.42,3.61A23.12,23.12,0,0,1,47,38.64c-3.36,1.34-7.53,3-9,5.79A12.33,12.33,0,0,0,36.92,54C41.79,54.52,47,56.83,52.52,59.32Z"/><path class="cls-1" d="M111.08,162.12a121.41,121.41,0,0,0-7-11.25,82.15,82.15,0,0,1-5.54-8.72A85.86,85.86,0,0,1,93,150.87a121.41,121.41,0,0,0-7,11.25c-3,5.28-5.85,10.19-9.48,13.5A12.34,12.34,0,0,0,83,182.68c2.8,1.41,7.15.31,10.65-.58a22.11,22.11,0,0,1,4.89-.91,22.11,22.11,0,0,1,4.89.91c3.5.89,7.85,2,10.65.58a12.34,12.34,0,0,0,6.52-7.06C116.93,172.31,114.11,167.4,111.08,162.12Z"/><path class="cls-1" d="M176.08,103.22c-4.26,2.43-9.8,3.6-15.76,4.85a124.71,124.71,0,0,0-12.88,3.2,81.34,81.34,0,0,1-10,2.57,82.59,82.59,0,0,1,6.58,8A123.24,123.24,0,0,0,152.54,132c4.09,4.52,7.89,8.72,9.91,13.19a12.35,12.35,0,0,0,8.73-4c2.21-2.22,2.51-6.7,2.74-10.3a22.63,22.63,0,0,1,.65-4.94,22.72,22.72,0,0,1,2.38-4.37c1.92-3,4.32-6.85,3.83-9.94A12.34,12.34,0,0,0,176.08,103.22Z"/></g></svg>