<svg xmlns="http://www.w3.org/2000/svg" viewBox="0 0 200 200"><defs><style>.cls-1{fill:#e3e2e1;}</style></defs><g id="nashi"><path class="cls-1" d="M134.84,53.37c0,10-3.6,19.54-10.16,26.1s-16.09,8.8-26.1,8.8-18.44-3.34-25-9.9-11.39-15-11.39-25S65.41,33.31,72,26.75s16.6-8.63,26.61-8.63S117.39,21.44,124,28A35.76,35.76,0,0,1,134.84,53.37Z"/><path class="cls-1" d="M60.19,55.53C69.71,58.62,77.67,65,81.88,73.26s3.4,18,.3,27.54S73.31,117.31,65,121.52s-17.78,6.2-27.3,3.1-18.08-9.25-22.29-17.52-3.07-18.45,0-28,9-16.86,17.23-21.07A35.74,35.74,0,0,1,60.19,55.53Z"/><path class="cls-1" d="M39.18,127.19c5.89-8.09,14.4-13.69,23.57-15.14s18.19,2.34,26.29,8.22,13,13.54,14.41,22.71.39,18.82-5.49,26.92-14.39,14.33-23.55,15.78S55.9,182.9,47.81,177s-13.27-13.74-14.72-22.9A35.79,35.79,0,0,1,39.18,127.19Z"/><path class="cls-1" d="M100.85,169.32c-5.88-8.1-8.57-17.92-7.12-27.09s7.84-16.58,15.94-22.46,16.88-8.14,26.05-6.69,18,5.44,23.9,13.54,9.19,18.11,7.74,27.28S159,170.64,150.9,176.52s-17.16,8.37-26.33,6.92A35.74,35.74,0,0,1,100.85,169.32Z"/><path class="cls-1" d="M160,123.69c-9.52,3.1-19.7,2.62-28-1.59S118.66,109.51,115.57,100s-2.52-18.57,1.69-26.84S128,57.69,137.52,54.6s20.07-3.14,28.33,1.07,13.34,13.13,16.43,22.65,2.66,18.91-1.55,27.17A35.76,35.76,0,0,1,160,123.69Z"/><circle class="cls-1" cx="99.01" cy="105.82" r="12.79"/></g></svg>