<svg xmlns="http://www.w3.org/2000/svg" viewBox="0 0 200 200"><defs><style>.cls-1{fill:#e2a164;}</style></defs><g id="susuki"><g id="レイヤー_66" data-name="レイヤー 66"><g id="レイヤー_67" data-name="レイヤー 67"><path class="cls-1" d="M97.05,170.86A31.67,31.67,0,0,1,83.82,179,37.6,37.6,0,0,1,76,180.6a38.5,38.5,0,0,1-8-.16c-.67-.07-1.33-.2-2-.33s-1.33-.23-2-.4a36.37,36.37,0,0,1-3.85-1.17A35,35,0,0,1,53,175a31.59,31.59,0,0,1-10.7-11.26A71.66,71.66,0,0,0,55.15,171a51.55,51.55,0,0,0,6.69,2.34,46.2,46.2,0,0,0,6.87,1.39l1.74.21c.58.06,1.16.07,1.75.11,1.16.14,2.33.06,3.51.11a60.49,60.49,0,0,0,7.06-.57A71.46,71.46,0,0,0,97.05,170.86Z"/><path class="cls-1" d="M120.67,167.2A31.73,31.73,0,0,1,111,179.37a35.69,35.69,0,0,1-14.4,6.78c-.65.17-1.31.27-2,.38s-1.32.23-2,.29c-1.34.11-2.67.24-4,.22a35.76,35.76,0,0,1-7.93-.88,31.54,31.54,0,0,1-13.9-6.93,71.9,71.9,0,0,0,14.55,2.46,52.18,52.18,0,0,0,7.08-.09,46.19,46.19,0,0,0,6.93-1l1.71-.39c.57-.14,1.12-.34,1.68-.49,1.14-.28,2.21-.75,3.33-1.1a58.37,58.37,0,0,0,6.45-3A71.59,71.59,0,0,0,120.67,167.2Z"/><path class="cls-1" d="M141.61,155.69a31.65,31.65,0,0,1-4.9,14.73,35.57,35.57,0,0,1-11.21,11.3,18.78,18.78,0,0,1-1.73,1c-.59.32-1.16.67-1.76,1a38.71,38.71,0,0,1-3.7,1.57,35.45,35.45,0,0,1-7.76,1.89,31.6,31.6,0,0,1-15.43-1.75,72.27,72.27,0,0,0,14.51-2.67,51.71,51.71,0,0,0,6.63-2.51,47.48,47.48,0,0,0,6.15-3.35l1.47-1c.48-.32.93-.7,1.41-1,1-.65,1.83-1.46,2.76-2.18a59.15,59.15,0,0,0,5-5A70.38,70.38,0,0,0,141.61,155.69Z"/><path class="cls-1" d="M157.36,137.71a31.57,31.57,0,0,1,.43,15.52,38.28,38.28,0,0,1-2.51,7.58,37.87,37.87,0,0,1-4.16,6.87c-.39.55-.83,1-1.27,1.56s-.86,1-1.33,1.51a40,40,0,0,1-2.94,2.74,35.19,35.19,0,0,1-6.64,4.42,31.6,31.6,0,0,1-15.1,3.64,71.29,71.29,0,0,0,12.72-7.48,50.78,50.78,0,0,0,5.37-4.62,45.27,45.27,0,0,0,4.63-5.26l1.06-1.39c.34-.48.64-1,1-1.46.7-.94,1.22-2,1.85-3a59.67,59.67,0,0,0,3-6.4A71.05,71.05,0,0,0,157.36,137.71Z"/><path class="cls-1" d="M166,115.43a31.63,31.63,0,0,1,5.71,14.44,35.95,35.95,0,0,1-1.32,15.85c-.18.65-.42,1.28-.66,1.9s-.46,1.26-.74,1.87c-.58,1.22-1.13,2.44-1.82,3.59a34.88,34.88,0,0,1-4.73,6.42,31.52,31.52,0,0,1-12.95,8.59,71.57,71.57,0,0,0,9.4-11.38,48.85,48.85,0,0,0,3.46-6.18,46.66,46.66,0,0,0,2.56-6.52l.52-1.68c.16-.56.26-1.13.41-1.7.33-1.12.46-2.29.71-3.44a58.44,58.44,0,0,0,.67-7.05A71.14,71.14,0,0,0,166,115.43Z"/><path class="cls-1" d="M166.52,91.53a31.76,31.76,0,0,1,10.3,11.62A35.62,35.62,0,0,1,181,118.5c.05.67,0,1.34,0,2s0,1.34-.05,2c-.13,1.34-.23,2.67-.49,4a34.94,34.94,0,0,1-2.25,7.66A31.49,31.49,0,0,1,169,146.66a72,72,0,0,0,5-13.9,51,51,0,0,0,1.13-7,46.78,46.78,0,0,0,.18-7l-.09-1.75c0-.58-.14-1.16-.19-1.74-.08-1.17-.36-2.31-.51-3.47a59.67,59.67,0,0,0-1.79-6.86A71.17,71.17,0,0,0,166.52,91.53Z"/><path class="cls-1" d="M158.82,68.9a31.67,31.67,0,0,1,13.65,7.4,37.64,37.64,0,0,1,5.31,6,38.23,38.23,0,0,1,3.87,7c.28.61.5,1.25.72,1.88s.46,1.26.63,1.91c.34,1.3.7,2.59.91,3.91a35,35,0,0,1,.51,8,31.52,31.52,0,0,1-4.4,14.89,71.77,71.77,0,0,0-.11-14.75,50.29,50.29,0,0,0-1.32-7,46.28,46.28,0,0,0-2.24-6.64l-.68-1.62c-.24-.53-.53-1-.77-1.57-.47-1.07-1.12-2-1.67-3.09a58.13,58.13,0,0,0-4-5.83A71.41,71.41,0,0,0,158.82,68.9Z"/><path class="cls-1" d="M143.84,50.27a31.68,31.68,0,0,1,15.36,2.28,35.51,35.51,0,0,1,13.07,9.07,18.9,18.9,0,0,1,1.32,1.52c.41.53.86,1,1.25,1.58A39.67,39.67,0,0,1,177,68.09a34.16,34.16,0,0,1,3.2,7.31,31.46,31.46,0,0,1,1,15.5A71.6,71.6,0,0,0,176,77.07,51.43,51.43,0,0,0,172.42,71a47.09,47.09,0,0,0-4.37-5.48l-1.19-1.28c-.41-.42-.85-.8-1.27-1.21-.81-.85-1.75-1.54-2.62-2.33a60.17,60.17,0,0,0-5.78-4.11A71.66,71.66,0,0,0,143.84,50.27Z"/><path class="cls-1" d="M123.4,37.89a31.61,31.61,0,0,1,15.21-3.12A35.51,35.51,0,0,1,154,38.83a17.72,17.72,0,0,1,1.75,1c.57.35,1.17.67,1.72,1a39.64,39.64,0,0,1,3.21,2.42,35,35,0,0,1,5.51,5.77,31.45,31.45,0,0,1,6.2,14.24,71.8,71.8,0,0,0-9.57-11.24,50.56,50.56,0,0,0-5.48-4.48,46.39,46.39,0,0,0-6-3.65l-1.56-.8c-.53-.25-1.08-.46-1.61-.7-1.05-.52-2.17-.85-3.26-1.3a59.26,59.26,0,0,0-6.83-1.88A70.9,70.9,0,0,0,123.4,37.89Z"/><path class="cls-1" d="M100,33.24a31.69,31.69,0,0,1,13.23-8.13A38.26,38.26,0,0,1,121,23.49a37.83,37.83,0,0,1,8,.17,18.56,18.56,0,0,1,2,.32c.66.13,1.33.23,2,.4,1.3.36,2.6.69,3.85,1.17A35,35,0,0,1,144,29.09a31.67,31.67,0,0,1,10.7,11.26,72.28,72.28,0,0,0-12.83-7.28,51.55,51.55,0,0,0-6.69-2.34,47.48,47.48,0,0,0-6.87-1.38l-1.74-.22c-.58-.06-1.16-.06-1.75-.11-1.16-.13-2.33-.06-3.51-.11a60.49,60.49,0,0,0-7.06.57A71.5,71.5,0,0,0,100,33.24Z"/><path class="cls-1" d="M76.33,36.89A31.7,31.7,0,0,1,86,24.73a38.44,38.44,0,0,1,6.79-4.2,39,39,0,0,1,7.61-2.59,19,19,0,0,1,2-.37c.67-.1,1.32-.24,2-.3a38.52,38.52,0,0,1,4-.21,34.61,34.61,0,0,1,7.93.88,31.52,31.52,0,0,1,13.9,6.92,71.9,71.9,0,0,0-14.55-2.46,50.6,50.6,0,0,0-7.08.1,46.17,46.17,0,0,0-6.93,1l-1.71.4c-.57.14-1.12.33-1.68.49-1.14.27-2.21.74-3.33,1.1a60.19,60.19,0,0,0-6.45,2.95A71.59,71.59,0,0,0,76.33,36.89Z"/><path class="cls-1" d="M55.39,48.4a31.72,31.72,0,0,1,4.9-14.73A35.85,35.85,0,0,1,71.5,22.37c.55-.38,1.14-.7,1.73-1s1.16-.67,1.76-1c1.22-.55,2.43-1.13,3.7-1.57a34.87,34.87,0,0,1,7.76-1.88,31.36,31.36,0,0,1,15.43,1.75,70.9,70.9,0,0,0-14.51,2.67,50.27,50.27,0,0,0-6.63,2.51,46.31,46.31,0,0,0-6.15,3.35l-1.47.95c-.48.33-.93.7-1.41,1-1,.65-1.83,1.46-2.76,2.17a60.67,60.67,0,0,0-5,5A70.77,70.77,0,0,0,55.39,48.4Z"/><path class="cls-1" d="M39.64,66.38a31.56,31.56,0,0,1-.43-15.52,38,38,0,0,1,2.51-7.57,38.3,38.3,0,0,1,4.16-6.88c.39-.54.83-1,1.27-1.55s.86-1,1.33-1.51a40,40,0,0,1,2.94-2.74,35.24,35.24,0,0,1,6.64-4.43,31.47,31.47,0,0,1,15.1-3.63A71.85,71.85,0,0,0,60.44,30a50.78,50.78,0,0,0-5.37,4.62,46.1,46.1,0,0,0-4.63,5.26l-1.06,1.4c-.34.47-.64,1-1,1.45-.7,1-1.22,2-1.85,3a61.55,61.55,0,0,0-3,6.4A71.42,71.42,0,0,0,39.64,66.38Z"/><path class="cls-1" d="M31,88.67a31.72,31.72,0,0,1-5.71-14.44A36,36,0,0,1,26.6,58.37c.18-.65.42-1.27.66-1.9s.46-1.26.74-1.87c.58-1.21,1.13-2.43,1.82-3.58a35.29,35.29,0,0,1,4.73-6.43A31.5,31.5,0,0,1,47.5,36a71.06,71.06,0,0,0-9.4,11.37,49.56,49.56,0,0,0-3.46,6.18,46.78,46.78,0,0,0-2.56,6.53l-.52,1.67c-.16.56-.26,1.14-.41,1.7-.33,1.13-.46,2.29-.71,3.44A58.8,58.8,0,0,0,29.77,74,71.2,71.2,0,0,0,31,88.67Z"/><path class="cls-1" d="M30.48,112.56A31.65,31.65,0,0,1,20.18,101,35.73,35.73,0,0,1,16,85.6c-.05-.67,0-1.35,0-2s0-1.34,0-2c.13-1.33.23-2.67.49-4a34.7,34.7,0,0,1,2.25-7.65A31.52,31.52,0,0,1,28,57.43,71.82,71.82,0,0,0,23,71.34a51.11,51.11,0,0,0-1.13,7,46.78,46.78,0,0,0-.18,7l.09,1.75c0,.59.14,1.16.19,1.74.08,1.18.36,2.31.51,3.48a60.76,60.76,0,0,0,1.79,6.86A71.38,71.38,0,0,0,30.48,112.56Z"/><path class="cls-1" d="M38.18,135.19a31.65,31.65,0,0,1-13.65-7.39,35.64,35.64,0,0,1-9.18-13c-.28-.61-.5-1.24-.72-1.88s-.46-1.26-.63-1.9c-.34-1.3-.7-2.59-.91-3.92a34.91,34.91,0,0,1-.51-8A31.52,31.52,0,0,1,17,84.24,71.87,71.87,0,0,0,17.09,99a50.29,50.29,0,0,0,1.32,7,47.12,47.12,0,0,0,2.24,6.64l.68,1.61c.24.54.53,1,.77,1.57.47,1.08,1.12,2,1.67,3.09a59.42,59.42,0,0,0,4,5.84A71.35,71.35,0,0,0,38.18,135.19Z"/><path class="cls-1" d="M53.16,153.82a31.68,31.68,0,0,1-15.36-2.27,37.88,37.88,0,0,1-7-3.79,37.49,37.49,0,0,1-6-5.29A17.32,17.32,0,0,1,23.41,141c-.41-.52-.86-1-1.25-1.57-.76-1.11-1.54-2.2-2.19-3.37a34.6,34.6,0,0,1-3.2-7.31,31.47,31.47,0,0,1-1-15.5A71.51,71.51,0,0,0,21,127a50.64,50.64,0,0,0,3.62,6.09A46.26,46.26,0,0,0,29,138.59l1.19,1.28c.41.42.85.8,1.27,1.21.81.85,1.75,1.55,2.62,2.34a58.38,58.38,0,0,0,5.78,4.1A71,71,0,0,0,53.16,153.82Z"/><path class="cls-1" d="M73.6,166.21a31.6,31.6,0,0,1-15.21,3.11,38,38,0,0,1-7.9-1.15,39,39,0,0,1-7.49-2.9c-.6-.29-1.18-.64-1.75-1s-1.17-.67-1.72-1c-1.09-.78-2.2-1.54-3.21-2.42A34.63,34.63,0,0,1,30.81,155a31.46,31.46,0,0,1-6.2-14.23A71.26,71.26,0,0,0,34.18,152a50.56,50.56,0,0,0,5.48,4.48,46.39,46.39,0,0,0,6,3.65l1.56.8c.53.26,1.08.46,1.61.7,1,.53,2.17.85,3.26,1.3a57.31,57.31,0,0,0,6.83,1.88A71.58,71.58,0,0,0,73.6,166.21Z"/></g></g></g></svg>