<svg xmlns="http://www.w3.org/2000/svg" viewBox="0 0 200 200"><defs><style>.cls-1{fill:#946b8f;}</style></defs><g id="fuji"><g id="レイヤー_107" data-name="レイヤー 107"><g id="レイヤー_108" data-name="レイヤー 108"><path class="cls-1" d="M98.76,104.53a12.57,12.57,0,1,0,12.58,12.57A12.59,12.59,0,0,0,98.76,104.53Zm-.22,12.79v0h0Z"/><path class="cls-1" d="M172.2,127.94c11-27.71-17.31-32.59-41.4-29.25,14.94-19.18,24.89-46.17-4.63-50.47-7-40-48.32-40-55.34,0-29.52,4.3-19.57,31.29-4.63,50.47-24.09-3.34-52.43,1.54-41.4,29.25C-6.32,154,14.33,189.79,52.48,175.87c18.48,23.41,36.87,1.3,46-21.22,9.15,22.52,27.54,44.63,46,21.22C182.67,189.79,203.32,154,172.2,127.94ZM140.47,142.7l-27.59-15.93a17.07,17.07,0,0,1-27.91.42l-27.65,16-1.58-2.73,27.6-15.93a17,17,0,0,1-1.7-7.39,17.14,17.14,0,0,1,15.28-17V68.18h3.16V100a17.08,17.08,0,0,1,14.34,24l27.63,16Z"/></g></g></g></svg>