<svg xmlns="http://www.w3.org/2000/svg" viewBox="0 0 200 200"><defs><style>.cls-1{fill:#f0f0f0;}</style></defs><g id="sakura"><g id="レイヤー_187" data-name="レイヤー 187"><g id="レイヤー_188" data-name="レイヤー 188"><path class="cls-1" d="M166.59,119.14c8.35-2.71,19.57-13.19,19.27-25.56-.13-5.21-7.63-13.76-7.63-13.76S179,67.55,176,63.26c-7-10.18-22.27-12.07-30.62-9.35a61.49,61.49,0,0,0-14.86,7.21h0a62,62,0,0,0,2.26-16.35c0-8.79-6.5-22.69-18.36-26.23-5-1.49-15.44,3-15.44,3s-11.45-4.49-16.44-3C70.7,22.07,64.2,36,64.2,44.76a62.14,62.14,0,0,0,2.27,16.36h0a62,62,0,0,0-14.86-7.2C43.26,51.19,28,53.08,21,63.26c-3,4.29-1.91,15.61-1.91,15.61s-7.81,9.5-7.94,14.71c-.3,12.37,10.92,22.85,19.28,25.56A61.54,61.54,0,0,0,46.67,122h0A61.74,61.74,0,0,0,35.22,134c-5.16,7.1-8.07,22.18-.56,32,3.16,4.14,14.26,6.64,14.26,6.64S55.53,183,60.45,184.69c11.67,4.11,25.1-3.32,30.27-10.43A62,62,0,0,0,98.5,159.7h0a62.11,62.11,0,0,0,7.78,14.55c5.17,7.11,18.6,14.54,30.27,10.43,4.92-1.73,10.72-11.5,10.72-11.5s11.91-3.09,15.07-7.23c7.51-9.84,4.6-24.91-.56-32A61.85,61.85,0,0,0,150.32,122h0A62,62,0,0,0,166.59,119.14ZM126.78,98.22l-15.42,5a12.77,12.77,0,0,1,.17,2,13,13,0,0,1-3.78,9.17l9.53,13.11a2.1,2.1,0,0,1-1.7,3.33,2.07,2.07,0,0,1-1.69-.87l-9.53-13.11a13,13,0,0,1-11.72,0l-9.52,13.11a2.1,2.1,0,0,1-1.7.87,2.1,2.1,0,0,1-1.7-3.33l9.53-13.11a13,13,0,0,1-3.78-9.17,12.77,12.77,0,0,1,.17-2l-15.42-5a2.1,2.1,0,0,1,1.29-4l15.42,5a13,13,0,0,1,9.47-6.88V76.14a2.1,2.1,0,0,1,4.2,0V92.36a13,13,0,0,1,9.47,6.88l15.42-5a2.1,2.1,0,0,1,1.29,4Z"/></g></g></g></svg>