<svg xmlns="http://www.w3.org/2000/svg" viewBox="0 0 200 200"><defs><style>.cls-1{fill:#e7d1d0;}</style></defs><g id="lilac"><g id="レイヤー_91" data-name="レイヤー 91"><g id="レイヤー_92" data-name="レイヤー 92"><circle class="cls-1" cx="99.26" cy="102.77" r="11.87"/><circle class="cls-1" cx="99.26" cy="102.77" r="11.87"/><path class="cls-1" d="M161.58,94.2c.95-8.72-1.9-15.43-1-20.46,1.05-5.81-2.54-15-22.55-22.33,24.22-33.11-.71-46.44-14.8-7.92-7.09-5.18-14.32-6.07-18.22-9.37-4.5-3.82-14.26-5.31-30.61,8.36C57.86,5,33.85,19.87,60.17,51.34c-8,3.54-16.83,11.14-21.65,12.86-5.55,2-7.31,7.92-3.65,28.91C-5.91,88.69-5,117,35.42,109.89c-1,8.73,1.9,15.43,1,20.47-1,5.8,2.54,15,22.55,22.32-24.22,33.11.71,46.44,14.8,7.92,7.09,5.18,14.31,6.07,18.22,9.38,4.5,3.81,14.26,5.31,30.61-8.36,16.56,37.52,40.57,22.6,14.25-8.86,8-3.55,12.42-9.36,17.24-11.09,5.55-2,11.72-9.7,8.06-30.69C202.91,115.4,202,87.15,161.58,94.2ZM128,138.5c-.43-1-.87-1.92-1.31-2.83a9.53,9.53,0,0,1-3.07,1.1,11.72,11.72,0,0,1-2.07.18c-5.83,0-12.63-4-19.31-11.24.77,5.42,4.18,12.89,11.51,21.65a62.76,62.76,0,0,0-14.19,8.34c-3.81-3.41-9.66-6.9-17.86-9.9,4.9-6.71,7.79-12.6,9.16-17.41C84,133.71,77.4,136,72.15,134.61a9.94,9.94,0,0,1-3.32-1.6c-.67,1.52-1.33,3.14-2,4.87a62.9,62.9,0,0,0-14.32-8.12c1.05-5,1.15-11.81-.36-20.41,9.58,1,16.86.27,21.86-1.42A67,67,0,0,1,80.7,102a60.79,60.79,0,0,1-8.61-9.77c-5-1-11.82-1.16-20.44.35a63,63,0,0,0-.13-16.46c4.86-1.6,10.8-4.91,17.51-10.52q1.08,2.47,2.22,4.63a9.63,9.63,0,0,1,3.68-1.45c5.82-1,12.85,2.43,19.84,9.46-.81-5.41-4.23-12.82-11.49-21.5A62.77,62.77,0,0,0,97.47,48.4c3.81,3.4,9.66,6.89,17.86,9.9-6.08,8.31-9,15.37-9.89,20.68,7.68-6.63,15.11-9.58,20.92-8a10.25,10.25,0,0,1,1.61.59c.74-1.65,1.47-3.41,2.16-5.31a62.9,62.9,0,0,0,14.32,8.12c-1,5-1.15,11.81.36,20.42a59.6,59.6,0,0,0-18.12.43,61.76,61.76,0,0,1-8.88,8.37,63,63,0,0,1,7.65,8.42c5,1,11.57,1,19.89-.45a63,63,0,0,0,.13,16.46C140.62,129.58,134.68,132.9,128,138.5Z"/></g></g></g></svg>