<svg xmlns="http://www.w3.org/2000/svg" viewBox="0 0 200 200"><defs><style>.cls-1{fill:#e6d3d6;}</style></defs><g id="momo"><g id="レイヤー_122" data-name="レイヤー 122"><g id="レイヤー_123" data-name="レイヤー 123"><path class="cls-1" d="M91.91,80.81l4,8.62h5.27l3.88-8.38c6.61-.82,12.67-3.06,17.17-7.56,5.92-5.92,9.17-14.52,9.17-23.56a32.26,32.26,0,0,0-9.84-22.88c-5.92-5.92-13.85-8.92-22.88-8.92s-18.1,1.87-24,7.79-8.82,15-8.82,24S70.18,66.58,76.1,72.5A29.67,29.67,0,0,0,91.91,80.81Z"/><path class="cls-1" d="M59.66,117.59a29.68,29.68,0,0,0,12.9-12.65l8.69-1,1.63-5-6.22-5.77C78,86.44,77.8,79.83,74.85,74c-3.8-7.46-11-13.2-19.56-16a32.28,32.28,0,0,0-24.81,2.28c-7.46,3.8-12.76,10.43-15.55,19s-3.82,17.78,0,25.24,11.53,13,20.12,15.81S52.2,121.39,59.66,117.59Z"/><path class="cls-1" d="M88.88,130.44l1.6-8.14-4.26-3.09-7.18,4c-5.82-3.21-12-4.94-18.3-3.95-8.26,1.31-16,6.36-21.26,13.66A32.26,32.26,0,0,0,34,157.22c1.3,8.27,6,15.36,13.27,20.66S63,187,71.27,185.7s15.94-6.94,21.25-14.24,6.26-16,5-24.29A29.8,29.8,0,0,0,88.88,130.44Z"/><path class="cls-1" d="M137.28,120.35a29.78,29.78,0,0,0-18.8,3.12l-7.64-4.26-4.26,3.09,1.71,8.66c-4.59,4.44-7.94,9.64-8.9,15.69-1.31,8.27,1.12,17.14,6.43,24.44a32.27,32.27,0,0,0,21.4,12.74c8.27,1.31,16.45-.93,23.76-6.24s13.54-12.15,14.85-20.42-1.67-17.3-7-24.61S145.55,121.65,137.28,120.35Z"/><path class="cls-1" d="M182.75,78.86c-2.79-8.59-7.37-16.64-14.83-20.44s-17-3.75-25.56-1-14.49,9.28-18.29,16.74a29.74,29.74,0,0,0-2.93,18.24l-7,6.45,1.63,5L125.2,105c2.8,5.74,6.72,10.55,12.18,13.33,7.46,3.8,16.64,4.23,25.23,1.44a32.22,32.22,0,0,0,18.73-16.42C185.14,95.92,185.54,87.45,182.75,78.86Z"/><circle class="cls-1" cx="98.92" cy="106.36" r="7.7"/></g></g></g></svg>