<svg xmlns="http://www.w3.org/2000/svg" viewBox="0 0 200 200"><defs><style>.cls-1{fill:#e7d1d0;}</style></defs><g id="anzu"><g id="レイヤー_98" data-name="レイヤー 98"><g id="レイヤー_99" data-name="レイヤー 99"><path class="cls-1" d="M182.47,78.61c-3-9.2-7.89-17.81-15.88-21.88s-18.18-4-27.38-1a29.3,29.3,0,0,0-6,2.72,40.15,40.15,0,0,0,.5-6.22,34.59,34.59,0,0,0-10.54-24.52c-6.34-6.34-14.84-9.54-24.51-9.54s-19.39,2-25.73,8.34-9.44,16.05-9.44,25.72a29.61,29.61,0,0,0,.73,6.52,40.1,40.1,0,0,0-5.76-2.39,34.56,34.56,0,0,0-26.57,2.44c-8,4.07-13.66,11.17-16.65,20.37s-4.09,19.05,0,27,12.34,13.94,21.55,16.93a29.45,29.45,0,0,0,6.42,1.32,41.12,41.12,0,0,0-4.05,4.74,34.55,34.55,0,0,0-5.89,26c1.4,8.86,6.4,16.45,14.22,22.14s16.86,9.77,25.72,8.37S90.28,178.26,96,170.43a29.61,29.61,0,0,0,3.24-5.71,38.44,38.44,0,0,0,3.25,5.32,34.61,34.61,0,0,0,22.93,13.65c8.86,1.4,17.62-1,25.45-6.69s14.5-13,15.91-21.87-1.79-18.53-7.48-26.36a29.85,29.85,0,0,0-4.43-4.85,39.37,39.37,0,0,0,6.07-1.45A34.52,34.52,0,0,0,181,104.88C185,96.89,185.46,87.82,182.47,78.61Zm-84,56.88a32.35,32.35,0,0,0-5.7-8.24l2-10L90.22,114l-8.64,4.82a36.43,36.43,0,0,0-10.78-4.06,32.4,32.4,0,0,0,6.07-8L87,105.54l1.74-5.36-7.25-6.73A36.42,36.42,0,0,0,82,82a32.45,32.45,0,0,0,9.45,3.32l4.27,9.23h5.65l4.15-9a36.75,36.75,0,0,0,11.1-3,32.52,32.52,0,0,0-.23,10l-7.45,6.92,1.74,5.36,9.82,1.18a36.65,36.65,0,0,0,6.33,9.62,32.33,32.33,0,0,0-9.59,2.87l-8.88-5-4.57,3.32,1.92,9.7A36.39,36.39,0,0,0,98.51,135.49Z"/><circle class="cls-1" cx="98.95" cy="106.04" r="8.24"/></g></g></g></svg>