<svg xmlns="http://www.w3.org/2000/svg" viewBox="0 0 200 200"><defs><style>.cls-1{fill:#e3e2e1;}.cls-2{fill:#fff;}</style></defs><g id="shirotume"><g id="レイヤー_104" data-name="レイヤー 104"><g id="レイヤー_105" data-name="レイヤー 105"><path class="cls-1" d="M171.81,102.05c15.4-8.25,13.6-19.57-3.59-22.66,12.1-12.6,6.89-22.81-10.41-20.43,7.61-15.72-.5-23.83-16.22-16.22,2.38-17.3-7.84-22.51-20.44-10.41-3.08-17.2-14.4-19-22.65-3.59-8.25-15.4-19.57-13.61-22.65,3.59C63.25,20.23,53,25.44,55.41,42.74c-15.72-7.61-23.83.5-16.22,16.22-17.3-2.38-22.51,7.83-10.41,20.43-17.19,3.09-19,14.41-3.59,22.66-15.4,8.24-13.6,19.57,3.59,22.65-12.1,12.6-6.89,22.82,10.41,20.43-7.61,15.73.5,23.83,16.22,16.22-2.38,17.31,7.84,22.51,20.44,10.41,3.08,17.2,14.4,19,22.65,3.59,8.25,15.4,19.57,13.61,22.65-3.59,12.6,12.1,22.82,6.9,20.44-10.41,15.72,7.61,23.83-.49,16.22-16.22,17.3,2.39,22.51-7.83,10.41-20.43C185.41,121.62,187.21,110.29,171.81,102.05Z"/><path class="cls-2" d="M131,120.78c17.51,19.91,6.19,31.22-13.71,13.72,5.2,26-10.25,30.13-18.74,5-8.49,25.11-23.94,21-18.74-5-19.9,17.5-31.22,6.19-13.71-13.72-26,5.21-30.13-10.25-5-18.73-25.11-8.49-21-23.94,5-18.74C48.54,63.41,59.86,52.09,79.76,69.6c-5.2-26,10.25-30.13,18.74-5,8.49-25.11,23.94-21,18.74,5,19.9-17.51,31.22-6.19,13.71,13.71,26-5.2,30.13,10.25,5,18.74C161.08,110.53,156.94,126,131,120.78Z"/></g></g></g></svg>