<svg xmlns="http://www.w3.org/2000/svg" viewBox="0 0 200 200"><defs><style>.cls-1{fill:#d33a49;}</style></defs><g id="tsubaki"><g id="レイヤー_169" data-name="レイヤー 169"><g id="レイヤー_170" data-name="レイヤー 170"><path class="cls-1" d="M138,113.16c-.68,1.46-1.35,2.91-2,4.36s-1.29,3-1.94,4.52c-3.67,8.73-7.83,18.62-16.8,25.15s-19.68,7.42-29.11,8.21c-1.66.14-3.3.28-4.9.44s-3.16.36-4.75.55a119.32,119.32,0,0,1-14.17,1.13,39.1,39.1,0,0,1-16.14-3.06c-9.74-4.33-15.89-13-21.84-21.42-.88-1.25-1.76-2.49-2.66-3.72s-1.8-2.46-2.71-3.68c-.33-.43-.65-.87-1-1.31a33.6,33.6,0,0,0,1.1,14.35C24.49,149.26,34,156,41.7,162.94c8,7.16,15.83,15.78,26.29,18a26.79,26.79,0,0,0,5.57.56c8.43,0,17.11-3.52,25.77-6.33,10.57-3.44,21.81-6,28.74-13.75,7.16-8,8.45-19.56,10.68-30,1.91-8.91,5-18.52,3.4-27.89C140.86,106.87,139.37,110.09,138,113.16Z"/><path class="cls-1" d="M139.22,84.4c-1.07-10.32-8.64-19-15.17-28s-12.48-18.88-22-23.09a33.13,33.13,0,0,0-13.6-2.52c-6,0-12.28,1-18.26,1.64-10.31,1.07-22,1-31,7.49S26.79,57.55,22.57,67c-4.34,9.78-10.11,19.93-9,30.57,1.07,10.32,8.63,19,15.17,28s12.48,18.88,22,23.09a33.08,33.08,0,0,0,13.59,2.52c6,0,12.28-1,18.26-1.64,10.32-1.08,22-1,31-7.49S126,124.44,130.21,115C134.56,105.18,140.33,95,139.22,84.4ZM98.14,132.73a30.91,30.91,0,1,1,30.91-30.9A30.91,30.91,0,0,1,98.14,132.73Z"/><path class="cls-1" d="M166,146.57c-1.16,1-2.31,2.1-3.52,3.23-7.1,6.59-15.15,14.07-25.85,16.35a32.76,32.76,0,0,1-4.38.61c-7.15,7.39-17,10.46-26.5,13.43-1.44.45-2.93.91-4.36,1.37L97.07,183l-1.11.38a33.1,33.1,0,0,0,13.42,3.14c11.12,0,20.47-6.95,29.45-12.14,9.26-5.36,19.9-10.17,25.26-19.43a30.07,30.07,0,0,0,3.38-9.68C167,145.71,166.49,146.14,166,146.57Z"/><path class="cls-1" d="M179.73,85.55c-2.23-10.46-3.53-22.06-10.68-30a29.86,29.86,0,0,0-8.16-6.21l.78,1.79c.63,1.42,1.29,2.84,2,4.34,4.08,8.8,8.7,18.76,7.57,29.64-1.12,10.72-7.52,19.3-13.71,27.59-.9,1.21-1.83,2.46-2.71,3.68s-1.79,2.49-2.66,3.72c-1.84,2.61-3.71,5.24-5.7,7.77l0,.17c-.39,1.67-.76,3.24-1.09,4.79s-.63,3.06-.95,4.68c-1.36,6.95-2.87,14.58-6.44,21.36,9.16-3,16.34-10.75,23.61-17.27,7.71-6.94,17.21-13.69,20.64-24.26S181.9,95.7,179.73,85.55Z"/><path class="cls-1" d="M155.54,53.83c-4.21-9.48-7.7-20.6-16.7-27.14s-20.64-6.41-31-7.49c-6-.62-12.21-1.64-18.26-1.64A33.16,33.16,0,0,0,76,20.08a29.8,29.8,0,0,0-8.42,5.84c.65-.05,1.3-.11,1.94-.18,1.55-.16,3.1-.35,4.74-.55,4.62-.55,14.22-1.13,14.22-1.13h0a39.59,39.59,0,0,1,16.31,3.1c9.85,4.37,16,13.11,22,21.56.87,1.23,1.77,2.5,2.65,3.72l2.72,3.67c6.19,8.3,12.58,16.87,13.7,27.59a34.76,34.76,0,0,1-.3,9.08,35.17,35.17,0,0,1,2,4.79,38.91,38.91,0,0,1,1.57,15.16l.22-.31c6.54-9,14.1-17.71,15.18-28C165.65,73.75,159.88,63.61,155.54,53.83Z"/></g></g></g></svg>