<svg xmlns="http://www.w3.org/2000/svg" viewBox="0 0 200 200"><defs><style>.cls-1{fill:#b8b1c9;}</style></defs><g id="ajisai"><g id="レイヤー_190" data-name="レイヤー 190"><g id="レイヤー_191" data-name="レイヤー 191"><ellipse class="cls-1" cx="98.5" cy="102.22" rx="8.06" ry="6.94"/><path class="cls-1" d="M113.37,96.12l34.15-29.41a7.84,7.84,0,0,1,10.21,0l34.15,29.41a7.82,7.82,0,0,1,0,11.86l-34.15,29.4a7.82,7.82,0,0,1-10.21,0L113.37,108A7.82,7.82,0,0,1,113.37,96.12Z"/><path class="cls-1" d="M59.24,49.52l34.15-29.4a7.83,7.83,0,0,1,10.22,0l34.15,29.4a7.83,7.83,0,0,1,0,11.86l-34.15,29.4a7.83,7.83,0,0,1-10.22,0L59.24,61.38A7.83,7.83,0,0,1,59.24,49.52Z"/><path class="cls-1" d="M5.12,96.12,39.27,66.71a7.84,7.84,0,0,1,10.21,0L83.63,96.12a7.82,7.82,0,0,1,0,11.86l-34.15,29.4a7.82,7.82,0,0,1-10.21,0L5.12,108A7.82,7.82,0,0,1,5.12,96.12Z"/><path class="cls-1" d="M59.24,142.71l34.15-29.4a7.83,7.83,0,0,1,10.22,0l34.15,29.4a7.83,7.83,0,0,1,0,11.86L103.61,184a7.83,7.83,0,0,1-10.22,0l-34.15-29.4A7.83,7.83,0,0,1,59.24,142.71Z"/></g></g></g></svg>