<svg xmlns="http://www.w3.org/2000/svg" viewBox="0 0 200 200"><defs><style>.cls-1{fill:#f0f0f0;}</style></defs><g id="kuri"><g id="レイヤー_85" data-name="レイヤー 85"><g id="レイヤー_86" data-name="レイヤー 86"><path class="cls-1" d="M131.83,30a93.94,93.94,0,0,0-11.38-2.58,83.08,83.08,0,0,0-11.54-1,88,88,0,0,0-11.49.67,81.47,81.47,0,0,0-11.2,2.3A78.83,78.83,0,0,0,48.36,53,80.21,80.21,0,0,0,41.6,62a82.33,82.33,0,0,0-5.4,9.77,87,87,0,0,0-3.94,10.44,79.27,79.27,0,0,0-2.4,10.87,76.68,76.68,0,0,0,35.37,76.13,81.65,81.65,0,0,0,9.85,5.17,86.84,86.84,0,0,0,10.51,3.72,79.05,79.05,0,0,0,22.14,2.77,80.86,80.86,0,0,0,11.19-1.06,88.4,88.4,0,0,0,11-2.67,85.71,85.71,0,0,0,10.52-4.2,87.23,87.23,0,0,0,9.84-5.73,82.16,82.16,0,0,0,9-7.07,86.69,86.69,0,0,0,7.91-8.34,80.54,80.54,0,0,0,6.69-9.45A93.18,93.18,0,0,0,179.21,132a83.06,83.06,0,0,1-4.26,11A82.42,82.42,0,0,1,169,153.16a79.07,79.07,0,0,1-7.49,9.27,85.84,85.84,0,0,1-8.85,8.08,88,88,0,0,1-10,6.66,92.37,92.37,0,0,1-10.94,5.13,82.47,82.47,0,0,1-11.63,3.42A87.22,87.22,0,0,1,108,187.38,81.72,81.72,0,0,1,61.1,176,83.47,83.47,0,0,1,51,168.9a86.08,86.08,0,0,1-8.9-8.5,87.43,87.43,0,0,1-7.52-9.74,90.55,90.55,0,0,1-6-10.75,92.87,92.87,0,0,1-4.33-11.52,88.38,88.38,0,0,1-2.59-12,87,87,0,0,1-.75-12.28A83.73,83.73,0,0,1,22,91.82,81.63,81.63,0,0,1,43.57,48.63a86,86,0,0,1,9-8.15A82.8,82.8,0,0,1,62.73,33.8a90.61,90.61,0,0,1,11-5,86.6,86.6,0,0,1,11.55-3.36,85.28,85.28,0,0,1,11.88-1.55,77.6,77.6,0,0,1,11.91.25,81.51,81.51,0,0,1,11.66,2.06A82.48,82.48,0,0,1,131.83,30Z"/><path class="cls-1" d="M121.69,27c1,.42-.55,4.21.08,5.1s4.72.44,4.88,1.55-3.89,1.82-4.24,2.9,2.45,4,1.75,4.73-3.57-2.18-4.57-2-2.39,4-3.41,3.6.55-4.2-.09-5.09-4.71-.45-4.87-1.55,3.89-1.82,4.24-2.9-2.46-4-1.75-4.73,3.56,2.18,4.57,2S120.67,26.58,121.69,27Z"/><path class="cls-1" d="M111.36,23.91c1,.41-.66,4.24,0,5.11s4.77.35,4.92,1.42-4,1.74-4.32,2.78,2.57,4,1.88,4.7-3.55-2.3-4.52-2.09-2.34,4.11-3.33,3.7.67-4.24,0-5.11-4.77-.34-4.92-1.41,4-1.75,4.32-2.79-2.56-4-1.88-4.7,3.56,2.3,4.53,2.09S110.37,23.51,111.36,23.91Z"/><path class="cls-1" d="M101,22.66c1,.39-.77,4.27-.18,5.11s4.82.25,5,1.29-4.07,1.67-4.4,2.68,2.67,4,2,4.66S99.83,34,98.89,34.18s-2.28,4.2-3.24,3.8.78-4.27.19-5.11-4.82-.26-5-1.29,4.07-1.67,4.4-2.68-2.67-4-2-4.66,3.54,2.42,4.48,2.21S100,22.26,101,22.66Z"/><path class="cls-1" d="M90.71,23.15c.94.38-.89,4.32-.31,5.13s4.87.16,5,1.16S91.24,31,90.93,32s2.77,4,2.13,4.63-3.53-2.55-4.44-2.35-2.22,4.28-3.15,3.9.9-4.32.32-5.12-4.87-.16-5-1.17,4.17-1.59,4.49-2.56-2.78-4-2.13-4.64,3.53,2.55,4.44,2.35S89.79,22.77,90.71,23.15Z"/><path class="cls-1" d="M80.71,25.32c.9.37-1,4.35-.46,5.13s4.93.07,5.07,1S81.06,33,80.75,33.94s2.88,4,2.26,4.6-3.52-2.66-4.4-2.47-2.17,4.36-3.06,4,1-4.35.46-5.14-4.93-.06-5.07-1,4.26-1.52,4.57-2.46-2.88-4-2.26-4.59,3.52,2.66,4.4,2.47S79.82,25,80.71,25.32Z"/><path class="cls-1" d="M71.12,29.08c.87.35-1.13,4.38-.59,5.14s5,0,5.11.9S71.29,36.57,71,37.47s3,4,2.39,4.56S69.87,39.25,69,39.44s-2.11,4.44-3,4.09,1.13-4.38.59-5.14-5,0-5.11-.9,4.36-1.45,4.65-2.35-3-4-2.39-4.56,3.51,2.78,4.36,2.59S70.26,28.73,71.12,29.08Z"/><path class="cls-1" d="M62.11,34.34c.63.26-1.41,4.39-1,4.87s4.66-1.38,4.91-.75S62,40.65,62,41.33s4.46,2,4.25,2.62-4.55-1-4.92-.49,2,4.41,1.5,4.71-2.44-3.86-3.08-3.82-2,4.41-2.6,4.16,1.41-4.39.95-4.87-4.66,1.38-4.91.75,4.11-2.19,4.09-2.87-4.46-2-4.25-2.62,4.55,1,4.92.49-2-4.41-1.5-4.71,2.44,3.86,3.08,3.82S61.49,34.09,62.11,34.34Z"/><path class="cls-1" d="M53.83,41c.61.24-1.5,4.43-1.06,4.9s4.71-1.47,4.95-.87-4.22,2.16-4.2,2.81,4.56,1.94,4.35,2.56-4.6-1-5-.59,2.14,4.44,1.62,4.73-2.42-4-3-3.93-2,4.5-2.55,4.26S50.45,50.47,50,50s-4.71,1.46-4.95.86,4.21-2.16,4.19-2.81S44.7,46.13,44.9,45.5s4.61,1,5,.59-2.14-4.44-1.62-4.72,2.43,4,3,3.93S53.24,40.79,53.83,41Z"/><path class="cls-1" d="M46.45,49.07c.58.24-1.6,4.49-1.18,4.94s4.76-1.56,5-1S45.94,55.15,46,55.78s4.65,1.9,4.46,2.5-4.67-1.15-5-.71,2.24,4.48,1.74,4.76-2.41-4.08-3-4-1.92,4.59-2.48,4.36,1.6-4.48,1.18-4.93-4.76,1.56-5,1,4.32-2.13,4.3-2.75-4.65-1.9-4.45-2.5,4.67,1.14,5,.7S40.47,49.67,41,49.4s2.4,4.07,3,4S45.88,48.84,46.45,49.07Z"/><path class="cls-1" d="M40.11,58.37c.56.23-1.7,4.54-1.29,5s4.8-1.65,5-1.1-4.42,2.1-4.41,2.7S44.18,66.8,44,67.37s-4.73-1.23-5.07-.81,2.34,4.51,1.86,4.78-2.39-4.18-3-4.15-1.89,4.69-2.43,4.47,1.7-4.54,1.3-5-4.81,1.65-5,1.1,4.42-2.1,4.41-2.7-4.75-1.86-4.56-2.43,4.73,1.23,5.07.8S34.25,59,34.73,58.69s2.39,4.18,3,4.15S39.57,58.15,40.11,58.37Z"/><path class="cls-1" d="M35,68.85c.53.22-1.79,4.59-1.41,5s4.86-1.74,5.07-1.21-4.54,2.07-4.52,2.64S39,77.1,38.78,77.65s-4.8-1.32-5.11-.92,2.42,4.55,2,4.8-2.36-4.29-2.9-4.25-1.85,4.78-2.38,4.57,1.8-4.59,1.42-5-4.86,1.74-5.07,1.2,4.53-2.06,4.52-2.63S26.38,73.59,26.56,73s4.79,1.33,5.11.92-2.42-4.54-2-4.8,2.37,4.29,2.91,4.26S34.46,68.64,35,68.85Z"/><path class="cls-1" d="M31.24,80.33c.51.2-1.89,4.63-1.53,5s4.91-1.83,5.11-1.33-4.64,2-4.62,2.59S35.13,88.4,35,88.93s-4.86-1.42-5.16-1,2.52,4.58,2.08,4.82-2.35-4.4-2.86-4.36S27.2,93.23,26.7,93s1.9-4.64,1.53-5-4.9,1.83-5.1,1.32,4.64-2,4.62-2.58S22.82,85,23,84.43s4.85,1.41,5.16,1-2.52-4.58-2.08-4.82S28.41,85,28.92,85,30.75,80.12,31.24,80.33Z"/><path class="cls-1" d="M29.14,92.05c.48.19-2,4.69-1.64,5.06s5-1.92,5.14-1.44-4.75,2-4.73,2.53,5,1.75,4.87,2.25-4.92-1.51-5.21-1.14,2.61,4.62,2.19,4.85S27.44,99.65,27,99.68s-1.79,5-2.26,4.77,2-4.68,1.64-5.06-4.95,1.92-5.14,1.44,4.74-2,4.73-2.53-5-1.75-4.87-2.25,4.92,1.51,5.21,1.14-2.62-4.62-2.2-4.84,2.33,4.5,2.82,4.47S28.67,91.85,29.14,92.05Z"/><path class="cls-1" d="M28.64,103.73c.45.19-2.09,4.75-1.76,5.1s5-2,5.18-1.55-4.85,2-4.84,2.47,5.13,1.71,5,2.18-5-1.59-5.26-1.24,2.71,4.65,2.32,4.87S26.94,111,26.48,111s-1.76,5.07-2.21,4.88,2.09-4.74,1.76-5.09-5,2-5.18,1.55,4.85-2,4.84-2.47-5.13-1.71-5-2.19,5,1.6,5.25,1.25-2.71-4.65-2.31-4.87,2.31,4.61,2.77,4.58S28.19,103.55,28.64,103.73Z"/><path class="cls-1" d="M29.66,115.22c.43.17-2.19,4.79-1.87,5.13s5-2.11,5.21-1.67-4.95,1.94-4.94,2.41,5.22,1.68,5.07,2.13-5-1.69-5.3-1.36,2.8,4.69,2.43,4.9S28,122,27.53,122.06s-1.72,5.16-2.15,5,2.19-4.79,1.88-5.13S22.21,124,22,123.58,27,121.64,27,121.17s-5.22-1.68-5.07-2.13,5,1.69,5.3,1.36-2.8-4.69-2.43-4.9,2.29,4.73,2.73,4.7S29.23,115,29.66,115.22Z"/><path class="cls-1" d="M32.14,126.32c.41.16-2.29,4.84-2,5.16s5.09-2.19,5.26-1.78-5.07,1.91-5,2.35,5.31,1.64,5.17,2.06-5.1-1.77-5.35-1.46,2.9,4.72,2.55,4.92-2.27-4.83-2.69-4.8S28.35,138,28,137.85s2.29-4.84,2-5.16-5.1,2.19-5.26,1.78,5.06-1.91,5.05-2.36-5.31-1.63-5.18-2.06,5.11,1.78,5.36,1.46-2.9-4.72-2.55-4.91,2.27,4.83,2.69,4.8S31.74,126.15,32.14,126.32Z"/><path class="cls-1" d="M36,136.86c.31.12-2.36,5-2.12,5.18s4.76-3,4.92-2.69-4.86,2.62-4.79,3,5.63.1,5.61.43-5.52-.33-5.62,0,4.73,3,4.56,3.27-4.44-3.26-4.68-3.07,2.12,5.19,1.83,5.29-1.44-5.29-1.75-5.3-1.76,5.31-2.06,5.19,2.36-5,2.11-5.18-4.75,3-4.92,2.69,4.87-2.63,4.8-3-5.63-.11-5.62-.44,5.53.34,5.63,0-4.74-3-4.57-3.28S33.78,142.22,34,142s-2.12-5.19-1.83-5.29,1.44,5.29,1.75,5.3S35.7,136.73,36,136.86Z"/><path class="cls-1" d="M41.17,146.66c.29.12-2.45,5-2.22,5.23s4.8-3.07,5-2.8-5,2.63-4.9,2.93,5.71.06,5.69.37S39.09,152,39,152.3s4.84,3,4.68,3.26-4.49-3.36-4.71-3.18,2.19,5.25,1.92,5.34-1.41-5.39-1.7-5.4-1.74,5.41-2,5.29,2.44-5,2.21-5.23-4.8,3.07-4.95,2.8,5-2.62,4.9-2.92-5.71-.06-5.7-.37,5.61.39,5.71.09-4.84-3-4.68-3.26,4.49,3.35,4.72,3.18-2.2-5.25-1.93-5.35,1.41,5.4,1.71,5.4S40.89,146.55,41.17,146.66Z"/><path class="cls-1" d="M47.57,155.56c.27.11-2.53,5.08-2.32,5.27s4.85-3.15,5-2.9-5.07,2.62-5,2.9,5.8,0,5.79.3-5.7-.45-5.79-.17,4.94,3,4.79,3.25-4.54-3.45-4.75-3.28,2.28,5.3,2,5.39-1.38-5.49-1.66-5.5-1.72,5.5-2,5.4,2.53-5.09,2.32-5.28-4.85,3.16-5,2.91,5.08-2.62,5-2.91-5.8,0-5.79-.3,5.7.45,5.79.17-4.93-3-4.78-3.25S45.74,161,46,160.85s-2.28-5.31-2-5.4,1.39,5.49,1.66,5.5S47.31,155.45,47.57,155.56Z"/><path class="cls-1" d="M55.14,163.37c.25.1-2.61,5.14-2.42,5.32s4.89-3.25,5-3-5.19,2.61-5.12,2.88,5.88-.05,5.87.22-5.79-.5-5.87-.24,5,3,4.9,3.24-4.58-3.55-4.78-3.4,2.35,5.37,2.12,5.46-1.36-5.6-1.62-5.61-1.7,5.6-1.94,5.5,2.61-5.14,2.42-5.32-4.9,3.25-5,3,5.18-2.62,5.12-2.88-5.88,0-5.87-.23,5.79.51,5.87.25-5-3-4.9-3.24,4.58,3.55,4.78,3.39-2.36-5.37-2.12-5.45,1.36,5.6,1.62,5.6S54.9,163.27,55.14,163.37Z"/><path class="cls-1" d="M63.8,169.91c.23.09-2.7,5.2-2.52,5.37s4.93-3.34,5.06-3.12-5.29,2.62-5.23,2.86,6-.09,6,.16-5.88-.57-5.95-.33,5.13,3,5,3.23-4.62-3.64-4.8-3.5,2.43,5.43,2.21,5.51-1.34-5.7-1.57-5.71-1.68,5.7-1.91,5.6,2.7-5.2,2.52-5.36-4.93,3.33-5.06,3.12,5.29-2.62,5.23-2.86-6,.09-6-.16,5.88.56,6,.32-5.14-3-5-3.23,4.62,3.65,4.8,3.5-2.43-5.43-2.21-5.5,1.34,5.7,1.57,5.7S63.57,169.82,63.8,169.91Z"/><path class="cls-1" d="M73.48,175c.21.08-2.79,5.26-2.63,5.41s5-3.42,5.1-3.23-5.4,2.62-5.34,2.84,6-.14,6,.09-6-.62-6-.4,5.23,3,5.12,3.22-4.67-3.74-4.83-3.61,2.51,5.49,2.3,5.56-1.31-5.8-1.53-5.81-1.66,5.79-1.86,5.71,2.78-5.26,2.62-5.41-5,3.42-5.1,3.22,5.4-2.61,5.34-2.84-6.05.15-6-.08,6,.62,6,.4-5.23-3.05-5.12-3.22,4.67,3.74,4.83,3.61-2.5-5.49-2.3-5.56,1.31,5.8,1.53,5.8S73.27,174.93,73.48,175Z"/><path class="cls-1" d="M125.52,26.21c1.08.4-.28,4.28.41,5.1s4.75.22,4.94,1.31-3.82,1.83-4.21,2.91,2.17,4.25,1.35,4.94-3.53-2.38-4.62-2.19-2.52,4-3.6,3.63.28-4.28-.41-5.1-4.75-.22-4.95-1.31,3.82-1.83,4.22-2.91-2.17-4.25-1.35-4.94,3.53,2.39,4.62,2.19S124.44,25.82,125.52,26.21Z"/><path class="cls-1" d="M114.23,23.19c1,.38-.4,4.32.27,5.12s4.8.12,5,1.18-3.92,1.75-4.3,2.79,2.28,4.24,1.48,4.91-3.51-2.5-4.57-2.32-2.46,4.12-3.5,3.73.39-4.31-.27-5.11-4.81-.12-5-1.18,3.91-1.75,4.3-2.8-2.28-4.24-1.49-4.91,3.52,2.51,4.57,2.32S113.18,22.81,114.23,23.19Z"/><path class="cls-1" d="M102.88,22c1,.37-.51,4.36.13,5.13s4.85,0,5,1.05-4,1.68-4.38,2.69,2.39,4.23,1.62,4.87-3.5-2.62-4.52-2.44-2.4,4.2-3.41,3.83.51-4.36-.13-5.13-4.85,0-5-1.05,4-1.67,4.38-2.69S94.18,24,95,23.35s3.5,2.62,4.52,2.44S101.87,21.59,102.88,22Z"/><path class="cls-1" d="M91.65,22.45c1,.35-.63,4.4,0,5.14s4.9-.07,5.07.92-4.1,1.6-4.46,2.58,2.5,4.22,1.75,4.84-3.47-2.74-4.46-2.57-2.34,4.29-3.32,3.93.63-4.4,0-5.14-4.89.07-5.06-.92,4.1-1.6,4.46-2.58-2.5-4.22-1.76-4.84,3.48,2.74,4.47,2.57S90.67,22.09,91.65,22.45Z"/><path class="cls-1" d="M80.7,24.56c.94.35-.74,4.45-.14,5.17s4.94-.17,5.11.78S81.47,32,81.13,33s2.6,4.21,1.88,4.81-3.45-2.86-4.41-2.69-2.28,4.38-3.22,4,.74-4.44.14-5.16-4.94.17-5.11-.79,4.2-1.52,4.54-2.47-2.6-4.21-1.88-4.81,3.45,2.86,4.4,2.7S79.76,24.22,80.7,24.56Z"/><path class="cls-1" d="M70.21,28.24c.91.33-.85,4.48-.27,5.18s5-.27,5.15.65-4.3,1.45-4.63,2.36,2.71,4.2,2,4.78-3.44-3-4.35-2.82S65.91,42.85,65,42.52s.86-4.48.28-5.18-5,.27-5.15-.65,4.29-1.45,4.63-2.36-2.71-4.2-2-4.78,3.43,3,4.35,2.82S69.3,27.9,70.21,28.24Z"/><path class="cls-1" d="M60.36,33.38c.65.24-1.15,4.49-.67,4.93s4.58-1.67,4.86-1.06-4,2.34-3.95,3,4.43,2,4.19,2.67-4.49-1.14-4.93-.65,1.69,4.57,1.08,4.85-2.34-4-3-4-2,4.43-2.68,4.19,1.15-4.48.67-4.93-4.58,1.68-4.86,1.07,4-2.34,4-3-4.43-2-4.19-2.68,4.49,1.14,4.93.66-1.68-4.57-1.08-4.86,2.35,4,3,4S59.71,33.14,60.36,33.38Z"/><path class="cls-1" d="M51.31,39.92c.62.23-1.25,4.54-.78,5s4.62-1.76,4.89-1.18-4.09,2.31-4.07,3,4.53,2,4.3,2.61-4.54-1.23-5-.77,1.78,4.61,1.2,4.89-2.32-4.09-3-4.06-2,4.52-2.62,4.29,1.25-4.54.78-5-4.62,1.77-4.89,1.19,4.09-2.32,4.07-3-4.53-2-4.3-2.62,4.54,1.24,5,.78-1.78-4.62-1.2-4.89,2.32,4.09,3,4.06S50.68,39.69,51.31,39.92Z"/><path class="cls-1" d="M43.23,47.78c.6.22-1.34,4.6-.89,5s4.66-1.85,4.92-1.29-4.2,2.28-4.18,2.91,4.62,2,4.4,2.55-4.6-1.33-5-.88,1.88,4.65,1.32,4.91-2.29-4.19-2.92-4.17-1.95,4.63-2.55,4.4,1.34-4.59.89-5-4.66,1.85-4.92,1.29,4.2-2.28,4.17-2.91-4.62-2-4.4-2.55,4.6,1.33,5,.88S37.2,48.27,37.76,48s2.29,4.19,2.92,4.17S42.63,47.56,43.23,47.78Z"/><path class="cls-1" d="M36.3,56.86c.57.22-1.44,4.66-1,5s4.7-1.95,5-1.41S35.93,62.76,36,63.36s4.72,1.91,4.5,2.49-4.65-1.43-5.05-1,2,4.69,1.43,4.94-2.26-4.3-2.86-4.27-1.91,4.71-2.49,4.5,1.43-4.66,1-5-4.7,2-4.95,1.42,4.3-2.26,4.28-2.86S27.11,61.62,27.32,61s4.66,1.42,5,1-2-4.7-1.43-4.95,2.27,4.3,2.87,4.28S35.72,56.65,36.3,56.86Z"/><path class="cls-1" d="M30.68,67.11c.56.2-1.53,4.71-1.12,5.08s4.74-2,5-1.53-4.41,2.23-4.39,2.81S35,75.34,34.76,75.9s-4.71-1.52-5.09-1.12,2.06,4.74,1.55,5S29,75.35,28.41,75.37,26.53,80.18,26,80s1.53-4.71,1.12-5.09-4.74,2-5,1.54,4.42-2.24,4.39-2.81-4.81-1.88-4.61-2.43S26.62,72.71,27,72.3s-2.06-4.73-1.55-5,2.24,4.41,2.82,4.39S30.13,66.9,30.68,67.11Z"/><path class="cls-1" d="M26.59,78.32c.53.19-1.62,4.77-1.23,5.13s4.78-2.14,5-1.65-4.53,2.2-4.5,2.75,4.9,1.84,4.71,2.37-4.77-1.62-5.13-1.23,2.15,4.78,1.67,5-2.22-4.52-2.76-4.5S22.52,91.11,22,90.91s1.62-4.77,1.24-5.12-4.79,2.14-5,1.65,4.52-2.21,4.5-2.76S17.81,82.84,18,82.32s4.77,1.61,5.13,1.22-2.15-4.77-1.66-5,2.21,4.52,2.76,4.49S26.06,78.13,26.59,78.32Z"/><path class="cls-1" d="M24.29,89.78c.5.18-1.72,4.82-1.35,5.16s4.82-2.23,5-1.77-4.63,2.18-4.61,2.71,5,1.8,4.82,2.3S23.36,96.47,23,96.84s2.24,4.82,1.78,5-2.19-4.62-2.71-4.6-1.8,5-2.3,4.82,1.72-4.83,1.35-5.17-4.83,2.23-5,1.77,4.63-2.18,4.61-2.7-5-1.81-4.82-2.31,4.83,1.71,5.17,1.34-2.25-4.81-1.78-5,2.18,4.62,2.7,4.6S23.79,89.59,24.29,89.78Z"/><path class="cls-1" d="M23.73,101.2c.48.18-1.81,4.88-1.46,5.21s4.86-2.33,5.07-1.89-4.74,2.15-4.72,2.65,5.1,1.77,4.92,2.24-4.88-1.81-5.2-1.45,2.34,4.86,1.89,5.06-2.16-4.73-2.65-4.71-1.77,5.09-2.24,4.92,1.81-4.88,1.46-5.21-4.86,2.33-5.07,1.89,4.74-2.15,4.72-2.65-5.1-1.77-4.92-2.24,4.88,1.8,5.21,1.45-2.35-4.86-1.9-5.06,2.16,4.73,2.65,4.71S23.26,101,23.73,101.2Z"/><path class="cls-1" d="M24.85,112.42c.45.17-1.91,4.94-1.58,5.25s4.91-2.42,5.1-2-4.84,2.12-4.82,2.59,5.19,1.73,5,2.18-4.94-1.9-5.25-1.57,2.44,4.9,2,5.1-2.13-4.84-2.6-4.82-1.73,5.18-2.18,5,1.91-4.94,1.58-5.25-4.91,2.43-5.1,2,4.84-2.13,4.82-2.6-5.19-1.73-5-2.18,4.94,1.9,5.24,1.57-2.43-4.9-2-5.09,2.13,4.84,2.6,4.82S24.4,112.26,24.85,112.42Z"/><path class="cls-1" d="M27.56,123.27c.42.16-2,5-1.7,5.29S30.81,126,31,126.44,26,128.54,26.06,129s5.28,1.69,5.13,2.12-5-2-5.29-1.69,2.53,4.94,2.13,5.13-2.1-4.95-2.54-4.93-1.7,5.28-2.12,5.13,2-5,1.69-5.29-4.95,2.52-5.13,2.12,4.95-2.1,4.93-2.54-5.28-1.69-5.13-2.12,5,2,5.29,1.68-2.53-4.94-2.13-5.12,2.11,4.95,2.55,4.93S27.13,123.12,27.56,123.27Z"/><path class="cls-1" d="M31.78,133.57c.31.12-2.09,5.11-1.83,5.31s4.54-3.3,4.72-3-4.69,2.9-4.6,3.22,5.62,0,5.61.31-5.5-.41-5.62-.09,4.55,3.29,4.36,3.54-4.22-3.55-4.49-3.37,1.76,5.34,1.44,5.43-1.32-5.35-1.65-5.36-1.71,5.34-2,5.23,2.08-5.11,1.82-5.31-4.54,3.3-4.72,3,4.69-2.9,4.6-3.22-5.62,0-5.6-.31,5.49.41,5.61.09-4.55-3.29-4.35-3.54,4.21,3.55,4.48,3.37-1.75-5.34-1.44-5.43,1.32,5.35,1.65,5.36S31.46,133.46,31.78,133.57Z"/><path class="cls-1" d="M37.42,143.16c.3.11-2.16,5.17-1.92,5.36s4.58-3.4,4.75-3.14-4.8,2.9-4.71,3.2,5.7-.07,5.69.24-5.59-.47-5.7-.17,4.65,3.3,4.47,3.53-4.25-3.65-4.51-3.48,1.83,5.4,1.54,5.49-1.29-5.46-1.6-5.47-1.69,5.45-2,5.34,2.16-5.17,1.93-5.36-4.58,3.4-4.75,3.14,4.79-2.9,4.71-3.2-5.7.07-5.69-.24,5.58.47,5.69.17-4.65-3.3-4.47-3.54,4.26,3.65,4.51,3.48-1.83-5.4-1.53-5.48,1.28,5.45,1.59,5.46S37.12,143.05,37.42,143.16Z"/><path class="cls-1" d="M44.42,151.85c.28.1-2.24,5.24-2,5.41S47,153.77,47.17,154s-4.9,2.91-4.82,3.19,5.79-.13,5.78.17-5.67-.53-5.78-.25,4.76,3.3,4.58,3.52-4.29-3.75-4.52-3.59,1.91,5.47,1.63,5.55S42.78,157,42.49,157s-1.67,5.54-2,5.44,2.25-5.24,2-5.41-4.62,3.49-4.78,3.25,4.9-2.91,4.82-3.19-5.78.13-5.77-.17,5.67.53,5.77.25-4.75-3.3-4.58-3.52,4.29,3.75,4.53,3.59-1.91-5.47-1.63-5.55,1.26,5.56,1.55,5.57S44.15,151.75,44.42,151.85Z"/><path class="cls-1" d="M52.7,159.48c.26.1-2.34,5.3-2.13,5.46s4.66-3.58,4.8-3.35-5,2.9-4.93,3.16,5.87-.17,5.86.1-5.76-.59-5.85-.33,4.85,3.31,4.69,3.52-4.33-3.85-4.55-3.7,2,5.53,1.73,5.6-1.23-5.65-1.5-5.66-1.64,5.63-1.9,5.54,2.33-5.3,2.12-5.46-4.65,3.58-4.8,3.35,5-2.91,4.93-3.16-5.87.17-5.86-.1,5.76.59,5.85.33-4.85-3.32-4.68-3.52S50.8,165.11,51,165s-2-5.53-1.73-5.6,1.23,5.65,1.5,5.66S52.44,159.39,52.7,159.48Z"/><path class="cls-1" d="M62.16,165.88c.24.09-2.42,5.36-2.23,5.51s4.7-3.67,4.83-3.47-5.11,2.92-5,3.16,6-.23,6,0-5.85-.65-5.94-.41,5,3.32,4.81,3.51-4.36-3.95-4.57-3.81S62,176,61.79,176.05s-1.19-5.76-1.44-5.76-1.63,5.73-1.87,5.64,2.42-5.36,2.23-5.51-4.69,3.67-4.83,3.47,5.11-2.92,5-3.16-6,.23-5.94,0,5.84.65,5.93.41-4.95-3.32-4.8-3.51,4.36,3.95,4.56,3.81-2.06-5.59-1.82-5.66,1.2,5.75,1.45,5.76S61.92,165.79,62.16,165.88Z"/><path class="cls-1" d="M72.74,170.87c.22.08-2.5,5.42-2.33,5.56s4.73-3.76,4.86-3.57-5.22,2.91-5.16,3.13,6-.28,6-.05-5.93-.7-6-.48,5.05,3.32,4.91,3.5-4.39-4.05-4.58-3.92,2.14,5.65,1.92,5.71-1.17-5.85-1.4-5.86-1.6,5.83-1.82,5.75,2.5-5.43,2.33-5.57-4.73,3.77-4.86,3.58,5.22-2.92,5.16-3.13-6,.27-6,0,5.94.71,6,.49-5-3.33-4.92-3.5,4.4,4,4.59,3.92-2.14-5.66-1.92-5.72,1.17,5.86,1.4,5.87S72.52,170.79,72.74,170.87Z"/><path class="cls-1" d="M121.33,34.33c1,.36-.45,4.19.18,4.94s4.65,0,4.83,1-3.83,1.64-4.19,2.62,2.26,4.08,1.51,4.71-3.37-2.49-4.37-2.31S117,49.35,116,49s.45-4.18-.18-4.93S111.14,44,111,43s3.83-1.64,4.19-2.63-2.26-4.08-1.51-4.71S117,38.16,118,38,120.34,34,121.33,34.33Z"/><path class="cls-1" d="M111,31.57c1,.35-.56,4.23,0,5s4.71,0,4.88.92S112,39,111.66,40s2.36,4.07,1.63,4.68-3.36-2.61-4.32-2.44-2.28,4.11-3.24,3.76.56-4.23,0-5-4.7,0-4.87-.92,3.92-1.57,4.27-2.53-2.36-4.07-1.63-4.68,3.35,2.6,4.32,2.44S110.05,31.22,111,31.57Z"/><path class="cls-1" d="M100.62,30.44c.93.34-.66,4.28-.08,5s4.76-.13,4.92.8-4,1.5-4.35,2.43,2.47,4.07,1.76,4.66-3.34-2.73-4.27-2.56-2.23,4.19-3.15,3.85.67-4.27.08-5-4.76.14-4.92-.8,4-1.5,4.35-2.42-2.47-4.07-1.76-4.66,3.34,2.72,4.27,2.56S99.7,30.1,100.62,30.44Z"/><path class="cls-1" d="M90.35,30.88c.9.33-.78,4.32-.21,5s4.81-.22,5,.68S91,38,90.67,38.88s2.57,4.07,1.89,4.64-3.33-2.84-4.23-2.68-2.17,4.28-3.06,3.95.77-4.32.2-5-4.8.23-5-.68,4.11-1.42,4.44-2.32-2.57-4.07-1.89-4.64,3.32,2.85,4.23,2.69S89.46,30.55,90.35,30.88Z"/><path class="cls-1" d="M80.34,32.81c.87.32-.88,4.36-.33,5s4.85-.31,5,.56-4.2,1.36-4.52,2.22,2.68,4.06,2,4.61-3.31-3-4.18-2.8-2.12,4.37-3,4,.89-4.36.34-5-4.86.32-5-.55,4.2-1.36,4.52-2.23-2.68-4.06-2-4.61,3.31,3,4.18,2.81S79.48,32.49,80.34,32.81Z"/><path class="cls-1" d="M70.75,36.16c.84.3-1,4.41-.46,5s4.9-.41,5,.43-4.3,1.29-4.61,2.12,2.79,4.06,2.15,4.59-3.29-3.07-4.13-2.92-2.07,4.45-2.9,4.15,1-4.41.47-5-4.9.41-5-.43,4.3-1.29,4.6-2.12-2.78-4.06-2.15-4.59,3.3,3.07,4.14,2.92S69.92,35.85,70.75,36.16Z"/><path class="cls-1" d="M61.74,40.85c.6.22-1.25,4.44-.81,4.84s4.5-1.76,4.76-1.21-4,2.23-4,2.85,4.44,1.91,4.22,2.51-4.44-1.25-4.84-.81,1.76,4.5,1.21,4.76-2.24-4-2.85-4S57.53,54.23,56.93,54s1.25-4.43.81-4.84-4.5,1.77-4.76,1.21,4-2.23,4-2.85-4.44-1.91-4.22-2.5,4.43,1.24,4.84.8-1.77-4.5-1.22-4.75,2.24,4,2.86,4S61.15,40.63,61.74,40.85Z"/><path class="cls-1" d="M53.47,46.82c.57.21-1.34,4.49-.92,4.88s4.54-1.86,4.79-1.32-4.13,2.21-4.1,2.8,4.53,1.88,4.32,2.45-4.49-1.34-4.88-.91,1.85,4.54,1.32,4.79-2.21-4.13-2.81-4.1-1.87,4.53-2.45,4.32,1.34-4.5.92-4.88-4.54,1.85-4.79,1.32S49,54,49,53.36s-4.53-1.87-4.32-2.45,4.49,1.34,4.88.92S47.68,47.29,48.21,47s2.21,4.13,2.81,4.1S52.89,46.61,53.47,46.82Z"/><path class="cls-1" d="M127,18.76c1,.36-.45,4.19.18,4.94s4.66.05,4.83,1.05-3.83,1.64-4.19,2.62,2.26,4.08,1.51,4.71S126,29.59,125,29.77s-2.33,4-3.32,3.65.45-4.18-.18-4.93-4.65-.06-4.83-1,3.83-1.64,4.19-2.63-2.26-4.08-1.51-4.71,3.38,2.49,4.37,2.32S126,18.4,127,18.76Z"/><path class="cls-1" d="M116.66,16c1,.35-.55,4.23,0,5s4.71,0,4.88.92-3.92,1.57-4.27,2.53,2.36,4.07,1.63,4.68-3.35-2.61-4.32-2.44-2.28,4.11-3.23,3.76.55-4.23-.05-5-4.71,0-4.88-.92S110.39,23,110.74,22s-2.36-4.07-1.63-4.68,3.35,2.61,4.32,2.44S115.71,15.65,116.66,16Z"/><path class="cls-1" d="M106.29,14.87c.92.34-.67,4.28-.08,5s4.75-.13,4.91.8-4,1.5-4.35,2.43,2.47,4.07,1.76,4.66-3.34-2.73-4.27-2.56S102,29.37,101.11,29s.67-4.27.08-5-4.76.13-4.92-.81,4-1.49,4.35-2.42-2.46-4.07-1.76-4.66,3.34,2.72,4.28,2.56S105.36,14.54,106.29,14.87Z"/><path class="cls-1" d="M96,15.31c.9.33-.77,4.32-.2,5s4.8-.22,5,.68-4.11,1.43-4.44,2.32S98.9,27.38,98.22,28,94.9,25.11,94,25.27s-2.17,4.28-3.06,3.95.78-4.32.21-5-4.81.23-5-.68,4.11-1.42,4.44-2.32S88,17.15,88.72,16.58s3.33,2.85,4.23,2.69S95.12,15,96,15.31Z"/><path class="cls-1" d="M86,17.24c.86.32-.89,4.36-.34,5s4.85-.31,5,.56-4.2,1.36-4.52,2.22,2.68,4.06,2,4.61-3.31-3-4.18-2.8-2.12,4.37-3,4,.89-4.36.34-5-4.85.32-5-.55S80.55,24,80.86,23.1s-2.68-4.06-2-4.61,3.31,3,4.18,2.81S85.14,16.93,86,17.24Z"/><path class="cls-1" d="M76.42,20.59c.83.3-1,4.41-.47,5s4.9-.41,5,.43-4.3,1.29-4.6,2.12,2.78,4.06,2.14,4.59-3.29-3.07-4.13-2.92-2.07,4.46-2.9,4.15,1-4.41.47-5-4.9.41-5-.43,4.3-1.29,4.6-2.12-2.78-4.06-2.15-4.59,3.3,3.07,4.14,2.92S75.58,20.28,76.42,20.59Z"/><path class="cls-1" d="M67.4,25.28c.6.22-1.24,4.44-.8,4.84s4.5-1.76,4.75-1.21-4,2.24-4,2.85,4.44,1.91,4.22,2.51-4.44-1.25-4.84-.81S68.5,38,68,38.22s-2.23-4-2.85-4-1.91,4.44-2.51,4.22,1.25-4.43.81-4.84-4.5,1.77-4.76,1.21,4-2.23,4-2.85-4.44-1.91-4.22-2.5,4.43,1.25,4.84.81-1.77-4.51-1.21-4.76,2.23,4,2.85,4S66.81,25.06,67.4,25.28Z"/><path class="cls-1" d="M59.13,31.25c.57.21-1.34,4.49-.92,4.88s4.54-1.85,4.79-1.32-4.13,2.21-4.1,2.8,4.53,1.88,4.32,2.45-4.49-1.34-4.88-.91,1.85,4.54,1.32,4.79-2.21-4.13-2.8-4.1S55,44.37,54.41,44.16s1.34-4.49.91-4.88-4.54,1.85-4.79,1.32,4.13-2.21,4.1-2.81-4.53-1.87-4.32-2.45,4.49,1.34,4.88.92-1.85-4.54-1.32-4.79,2.21,4.13,2.81,4.1S58.55,31,59.13,31.25Z"/></g></g></g></svg>