<svg xmlns="http://www.w3.org/2000/svg" viewBox="0 0 200 200"><defs><style>.cls-1{fill:#ccd584;}</style></defs><g id="kaki"><g id="レイヤー_163" data-name="レイヤー 163"><path class="cls-1" d="M147.21,55.49c-.12-24.65-21.48-37.27-47.66-37.27-25.42,0-46.29,11.88-47.61,35.11C27.29,53.45,14.68,74.82,14.68,101c0,25.41,11.88,46.29,35.11,47.6.11,24.65,21.48,37.27,47.66,37.27,25.42,0,46.29-11.88,47.61-35.11,24.65-.12,37.26-21.48,37.26-47.67C182.32,77.68,170.44,56.81,147.21,55.49Zm-80,15.23L96.3,67.47l.9,14.22a19.74,19.74,0,0,0-18.4,19.1l-14.88-.94Zm29.13,65.9-29.13-3.24-3.25-29.13,15-1A19.75,19.75,0,0,0,97.29,121Zm-7.4-25.2A75.22,75.22,0,0,0,89.61,101a77.26,77.26,0,0,0-.48-8.56,75.2,75.2,0,0,0,10.42.72,77.07,77.07,0,0,0,8.55-.48,75.08,75.08,0,0,0-.71,10.41,77.26,77.26,0,0,0,.48,8.56,76.62,76.62,0,0,0-19-.23Zm40.93,22-29.13,3.24-1-15.59a19.75,19.75,0,0,0,18.41-17.73l15,1ZM118.2,100.79a19.74,19.74,0,0,0-18.4-19.1l.9-14.22,29.13,3.25,3.25,29.13Z"/></g></g></svg>