<svg xmlns="http://www.w3.org/2000/svg" viewBox="0 0 200 200"><defs><style>.cls-1{fill:#814163;}</style></defs><g id="yamahagi"><g id="レイヤー_56" data-name="レイヤー 56"><g id="レイヤー_57" data-name="レイヤー 57"><path class="cls-1" d="M99.66,30.93a74.2,74.2,0,0,1,1.86,11.61c.35,3.88.51,7.76.51,11.64s-.17,7.75-.51,11.63a75.79,75.79,0,0,1-1.87,11.64,77,77,0,0,1-1.86-11.64c-.35-3.88-.51-7.75-.51-11.63s.16-7.76.51-11.64a74.2,74.2,0,0,1,1.86-11.61l-.38,0c-7.81,0-19.62,15-19.62,33.46s8.79,33.46,19.62,33.46,19.61-15,19.61-33.46C118.88,46.19,107.46,31.41,99.66,30.93Z"/><path class="cls-1" d="M144.53,23.55c-14.17-8.17-30.83-5.92-34.71-.06a68.25,68.25,0,0,1,9.89,3.78q4.77,2.2,9.29,4.84t8.84,5.63a68.39,68.39,0,0,1,8.23,6.69,68.53,68.53,0,0,1-9.91-3.79c-3.18-1.47-6.27-3.09-9.29-4.83s-6-3.62-8.84-5.63a68.21,68.21,0,0,1-8.22-6.68c-.06.1-.13.19-.18.29-3.52,6.08,2.85,22,17.25,30.34s30,8.21,34.9-.23S158.93,31.87,144.53,23.55Z"/><path class="cls-1" d="M89.68,23.79a2.4,2.4,0,0,0-.19-.29,68.11,68.11,0,0,1-8.21,6.68q-4.29,3-8.84,5.63c-3,1.74-6.12,3.36-9.3,4.83a68.41,68.41,0,0,1-9.9,3.79,68.39,68.39,0,0,1,8.23-6.69q4.29-3,8.83-5.63c3-1.75,6.12-3.37,9.3-4.84a68.25,68.25,0,0,1,9.89-3.78c-3.89-5.86-20.55-8.11-34.71.06C40.37,31.87,32.65,45.46,37.52,53.9s20.51,8.55,34.91.23S93.19,29.87,89.68,23.79Z"/><path class="cls-1" d="M95.69,102.7c-5.42-9.38-22.78-9.5-38.78-.26-15.75,9.09-22.83,26.37-19.35,33.37a75.87,75.87,0,0,1,9.12-7.42q4.78-3.36,9.83-6.26c3.36-1.93,6.8-3.73,10.33-5.37a75.25,75.25,0,0,1,11-4.2A75.54,75.54,0,0,1,68.7,120q-4.77,3.36-9.82,6.26c-3.35,1.94-6.79,3.74-10.33,5.37a75,75,0,0,1-11,4.2,2.7,2.7,0,0,0,.17.34c3.9,6.76,22.78,9.49,38.78.25S101.11,112.08,95.69,102.7Z"/><path class="cls-1" d="M26.39,70.52C16.64,70.52,8.73,84,8.73,100.64,8.73,117,19,130.3,26,130.73a67.64,67.64,0,0,1-1.68-10.45q-.46-5.23-.46-10.47c0-3.49.15-7,.47-10.47A69.09,69.09,0,0,1,26,88.87a67.89,67.89,0,0,1,1.68,10.47q.47,5.23.46,10.47c0,3.49-.14,7-.46,10.47a68.83,68.83,0,0,1-1.67,10.45l.34,0c7,0,17.65-13.48,17.65-30.11S36.14,70.52,26.39,70.52Z"/><path class="cls-1" d="M71.27,147.79c-14.41-8.31-31.4-5.85-34.91.23-.06.1-.1.21-.15.31a67,67,0,0,1,9.88,3.77q4.77,2.21,9.3,4.84c3,1.75,6,3.62,8.84,5.64a69.09,69.09,0,0,1,8.23,6.68,68.49,68.49,0,0,1-9.91-3.78c-3.18-1.47-6.27-3.09-9.3-4.84s-6-3.61-8.84-5.63a67.08,67.08,0,0,1-8.21-6.67c-3.13,6.29,3.25,21.85,17.41,30,14.41,8.31,30,8.21,34.91-.23S85.67,156.11,71.27,147.79Z"/><path class="cls-1" d="M140.48,103.11c-16-9.24-33.37-9.13-38.79.25s3.17,24.48,19.17,33.72c15.75,9.09,34.26,6.59,38.57.07a75,75,0,0,1-11-4.19q-5.31-2.46-10.33-5.38t-9.82-6.26a75.54,75.54,0,0,1-9.14-7.43,75.25,75.25,0,0,1,11,4.2q5.29,2.46,10.33,5.38t9.83,6.25a75.87,75.87,0,0,1,9.12,7.42c.07-.11.15-.21.21-.32C163.55,130.06,156.48,112.35,140.48,103.11Z"/><path class="cls-1" d="M160.8,149.67a68.11,68.11,0,0,1-8.21,6.68q-4.31,3-8.84,5.63c-3,1.74-6.12,3.36-9.3,4.83a67.35,67.35,0,0,1-9.91,3.78,69.09,69.09,0,0,1,8.23-6.68c2.87-2,5.82-3.89,8.84-5.64s6.12-3.36,9.3-4.84a68.09,68.09,0,0,1,9.88-3.77c0-.1-.09-.21-.15-.31-3.51-6.08-20.5-8.54-34.91-.23s-22.12,21.9-17.25,30.35,20.5,8.54,34.91.23C157.55,171.52,163.93,156,160.8,149.67Z"/><path class="cls-1" d="M170.61,71.86C160.86,71.86,153,85.34,153,102s10.63,30.11,17.65,30.11l.34,0a68.64,68.64,0,0,1-1.67-10.45c-.32-3.49-.46-7-.46-10.47s.15-7,.46-10.47A67.89,67.89,0,0,1,171,90.2a69.09,69.09,0,0,1,1.67,10.47c.32,3.49.46,7,.47,10.47s-.15,7-.46,10.47A67.45,67.45,0,0,1,171,132.06c7-.43,17.31-13.73,17.31-30.09C188.27,85.34,180.36,71.86,170.61,71.86Z"/></g></g></g></svg>