<svg xmlns="http://www.w3.org/2000/svg" viewBox="0 0 200 200"><defs><style>.cls-1{fill:#c5afc2;}</style></defs><g id="ringo"><g id="レイヤー_101" data-name="レイヤー 101"><g id="レイヤー_102" data-name="レイヤー 102"><path class="cls-1" d="M182.28,78.32c-3.09-9.52-8.16-18.44-16.43-22.65S147,51.51,137.52,54.6c-1,.31-1.86.67-2.75,1,0-.76.07-1.52.07-2.28A35.76,35.76,0,0,0,124,28c-6.56-6.56-15.36-9.88-25.37-9.88s-20,2.07-26.61,8.63-9.78,16.61-9.78,26.62c0,1,.07,2,.16,2.93-.71-.27-1.43-.53-2.16-.77A35.74,35.74,0,0,0,32.7,58.06c-8.26,4.21-14.14,11.55-17.23,21.07s-4.23,19.71,0,28,12.77,14.43,22.29,17.52c.95.31,1.9.56,2.85.77q-.72.89-1.41,1.8a35.79,35.79,0,0,0-6.09,26.93c1.45,9.16,6.62,17,14.72,22.9s17.44,10.12,26.6,8.66S92.07,178,98,169.9c.58-.81,1.11-1.64,1.6-2.47q.61,1,1.29,1.89a35.74,35.74,0,0,0,23.72,14.12c9.17,1.45,18.23-1,26.33-6.92s15-13.46,16.46-22.62-1.85-19.18-7.74-27.28c-.58-.81-1.21-1.56-1.85-2.29.74-.19,1.47-.4,2.2-.64a35.76,35.76,0,0,0,20.76-18.2C184.94,97.23,185.38,87.84,182.28,78.32Zm-83.53,52.1A37.26,37.26,0,0,0,89,120.27a47.82,47.82,0,0,0-13.51-7.1,37,37,0,0,0,6.65-12.37,47.69,47.69,0,0,0,2.58-15,37.25,37.25,0,0,0,13.82,2.5,47.77,47.77,0,0,0,15.1-2.2A37.12,37.12,0,0,0,115.57,100a48,48,0,0,0,6.75,13.68,37.27,37.27,0,0,0-12.65,6.1A47.71,47.71,0,0,0,98.75,130.42Z"/><circle class="cls-1" cx="99.01" cy="105.82" r="12.79"/></g></g></g></svg>