<svg xmlns="http://www.w3.org/2000/svg" viewBox="0 0 200 200"><defs><style>.cls-1{fill:#f7cd20;}</style></defs><g id="tanpopo"><g id="レイヤー_140" data-name="レイヤー 140"><g id="レイヤー_141" data-name="レイヤー 141"><path class="cls-1" d="M171.8,102.05c15.4-8.25,13.6-19.57-3.59-22.66,12.1-12.6,6.89-22.81-10.41-20.43,7.61-15.72-.5-23.83-16.22-16.22,2.38-17.3-7.83-22.51-20.43-10.41-3.08-17.2-14.41-19-22.65-3.59-8.24-15.4-19.57-13.61-22.65,3.59C63.25,20.23,53,25.44,55.42,42.74,39.7,35.13,31.59,43.24,39.2,59c-17.3-2.38-22.51,7.83-10.41,20.43C11.6,82.48,9.8,93.8,25.2,102.05c-15.4,8.24-13.6,19.57,3.59,22.65-12.1,12.6-6.89,22.82,10.41,20.43-7.61,15.73.5,23.83,16.22,16.22-2.38,17.31,7.83,22.51,20.43,10.41,3.08,17.2,14.41,19,22.65,3.59,8.24,15.4,19.57,13.61,22.65-3.59,12.6,12.1,22.81,6.9,20.43-10.41,15.72,7.61,23.83-.49,16.22-16.22,17.3,2.39,22.51-7.83,10.41-20.43C185.4,121.62,187.2,110.29,171.8,102.05ZM131,120.78c17.5,19.91,6.19,31.22-13.72,13.72,5.21,26-10.24,30.13-18.73,5-8.49,25.11-23.94,21-18.73-5-19.91,17.5-31.22,6.19-13.72-13.72-26,5.21-30.13-10.25-5-18.73-25.11-8.49-21-23.94,5-18.74-17.5-19.9-6.19-31.22,13.72-13.71-5.21-26,10.24-30.13,18.73-5,8.49-25.11,23.94-21,18.73,5,19.91-17.51,31.22-6.19,13.72,13.71,26-5.2,30.13,10.25,5,18.74C161.08,110.53,156.94,126,131,120.78Z"/><path class="cls-1" d="M121.92,102.05c15.69-5.31,13.1-15-3.14-11.71,10.94-12.44,3.87-19.51-8.57-8.57,3.25-16.25-6.41-18.84-11.71-3.14-5.3-15.7-15-13.11-11.71,3.14-12.44-10.94-19.51-3.87-8.57,8.57-16.24-3.26-18.83,6.4-3.14,11.71-15.69,5.3-13.1,15,3.14,11.71-10.94,12.44-3.87,19.51,8.57,8.57-3.25,16.24,6.41,18.83,11.71,3.14,5.3,15.69,15,13.1,11.71-3.14,12.44,10.94,19.51,3.87,8.57-8.57C135,117,137.61,107.35,121.92,102.05Z"/></g></g></g></svg>