<svg xmlns="http://www.w3.org/2000/svg" viewBox="0 0 200 200"><defs><style>.cls-1{fill:#f7fde4;}</style></defs><g id="suisen"><g id="レイヤー_175" data-name="レイヤー 175"><g id="レイヤー_176" data-name="レイヤー 176"><path class="cls-1" d="M163.26,102.05c10.93-10.16,11.42-23.66,12.23-32.31.26-2.82-3-7.42-5.4-7.86a1.27,1.27,0,0,1-1-1.75c.85-2.34-1.54-7.42-4.1-8.6-7.9-3.63-19.84-10-34.1-5.57C127.55,31.42,116.1,24.25,109,19.22c-2.3-1.64-7.9-1.16-9.5.75a1.28,1.28,0,0,1-2,0c-1.6-1.91-7.2-2.39-9.5-.75-7.09,5-18.54,12.2-21.87,26.74C51.86,41.58,39.93,47.9,32,51.53c-2.56,1.18-5,6.26-4.1,8.6a1.27,1.27,0,0,1-1,1.75c-2.45.44-5.66,5-5.4,7.86.81,8.65,1.3,22.15,12.23,32.31C22.81,112.2,22.32,125.7,21.51,134.36c-.26,2.81,2.95,7.42,5.4,7.85a1.27,1.27,0,0,1,1,1.75c-.85,2.34,1.54,7.43,4.1,8.61,7.9,3.62,19.84,10,34.1,5.56C69.45,172.67,80.9,179.85,88,184.88c2.3,1.63,7.9,1.15,9.5-.76a1.28,1.28,0,0,1,2,0c1.6,1.91,7.2,2.39,9.5.76,7.09-5,18.54-12.21,21.87-26.75,14.26,4.39,26.19-1.94,34.1-5.56,2.56-1.18,5-6.27,4.1-8.61a1.27,1.27,0,0,1,1-1.75c2.45-.43,5.66-5,5.4-7.85C174.68,125.7,174.19,112.2,163.26,102.05Zm-38.95,11.3c-.91,1.87-3.71,2.57-5,4.17s-1.35,4.5-3,5.79-4.43.7-6.31,1.61-3.13,3.46-5.18,3.93-4.26-1.3-6.37-1.3-4.4,1.75-6.37,1.3-3.34-3-5.19-3.93-4.69-.32-6.3-1.61-1.67-4.17-3-5.79-4.08-2.3-5-4.17.31-4.46-.16-6.5-2.67-3.81-2.67-5.93,2.23-4,2.67-5.93-.73-4.65.16-6.5,3.71-2.56,5-4.17,1.35-4.5,3-5.79,4.43-.7,6.31-1.6,3.13-3.47,5.18-3.93,4.26,1.3,6.37,1.3,4.4-1.75,6.37-1.3,3.34,3,5.19,3.93,4.69.32,6.3,1.6,1.67,4.17,3,5.79,4.08,2.3,5,4.17S124,93,124.47,95s2.67,3.82,2.67,5.93-2.23,4-2.67,5.93S125.2,111.51,124.31,113.35Z"/><circle class="cls-1" cx="98.5" cy="101.84" r="11.97"/></g></g></g></svg>