<svg xmlns="http://www.w3.org/2000/svg" viewBox="0 0 200 200"><defs><style>.cls-1{fill:#e6d3d6;}</style></defs><g id="higanzakura"><g id="レイヤー_116" data-name="レイヤー 116"><g id="レイヤー_117" data-name="レイヤー 117"><path class="cls-1" d="M98.4,84.68a1.19,1.19,0,0,1,1.19,1.19V98.24a10.09,10.09,0,0,1,2.46.62l13.54-36.17a120.86,120.86,0,0,0,1.21-17c0-9.11-3.63-23.52-9.93-27.19-2.65-1.55-8.2,3.12-8.2,3.12S92.59,17,89.93,18.54C83.63,22.21,80,36.62,80,45.73a120.81,120.81,0,0,0,1.25,17.18L94.94,98.79a10.31,10.31,0,0,1,2.27-.55V85.87A1.2,1.2,0,0,1,98.4,84.68Z"/><path class="cls-1" d="M76.09,100.9a1.18,1.18,0,0,1,1.49-.77L89.34,104a10.79,10.79,0,0,1,1.27-2l-30.1-24a122.59,122.59,0,0,0-15.75-6.39c-8.66-2.81-23.5-3.81-28.93,1-2.29,2,.43,8.76.43,8.76s-6.32,4.34-5.67,7.34c1.55,7.13,14.13,15,22.8,17.86a121.85,121.85,0,0,0,16.72,4.12l38.34-1.94a5.78,5.78,0,0,1,0-.58,10.19,10.19,0,0,1,.19-1.93l-11.76-3.83A1.18,1.18,0,0,1,76.09,100.9Z"/><path class="cls-1" d="M85.31,127.36a1.22,1.22,0,0,1-.7-.23,1.19,1.19,0,0,1-.26-1.66l7.27-10a9.85,9.85,0,0,1-1.47-1.69L58,135a121.2,121.2,0,0,0-11,13c-5.35,7.37-10.88,21.17-7.94,27.85,1.23,2.8,8.46,2.29,8.46,2.29s2.18,7.35,5.24,7.66c7.25.73,18.66-8.79,24-16.16A120.89,120.89,0,0,0,85.91,155l10-37.22a10.55,10.55,0,0,1-2.41-1l-7.27,10A1.18,1.18,0,0,1,85.31,127.36Z"/><path class="cls-1" d="M112.19,127.13a1.19,1.19,0,0,1-.69.23,1.21,1.21,0,0,1-1-.49l-7.27-10a9.56,9.56,0,0,1-2.08.88l10.33,37.34a120.85,120.85,0,0,0,9,14.43c5.35,7.37,16.77,16.9,24,16.16,3-.31,4.8-7.34,4.8-7.34s7.66.2,8.9-2.61c2.94-6.67-2.59-20.47-7.95-27.84a120.35,120.35,0,0,0-11.1-13.17l-32.4-21.12a10.22,10.22,0,0,1-1.59,1.88l7.28,10A1.2,1.2,0,0,1,112.19,127.13Z"/><path class="cls-1" d="M180.91,81.59s2.55-7.23.26-9.27c-5.43-4.86-20.27-3.86-28.93-1a121.16,121.16,0,0,0-16,6.5l-30,24.22a10.69,10.69,0,0,1,1.2,2l11.76-3.83a1.2,1.2,0,0,1,1.5.77,1.18,1.18,0,0,1-.77,1.49l-11.76,3.83a9.43,9.43,0,0,1,.2,1.93c0,.17,0,.33,0,.5l38.75,1.71a121.32,121.32,0,0,0,16.5-4.08c8.67-2.82,21.25-10.73,22.8-17.86C187.05,85.42,180.91,81.59,180.91,81.59Z"/></g></g></g></svg>